<?xml version="1.0" encoding="utf-8"?>
<!-- Generator: Adobe Illustrator 22.1.0, SVG Export Plug-In . SVG Version: 6.00 Build 0)  -->
<svg class="as1" version="1.1" id="Layer_1" xmlns="http://www.w3.org/2000/svg" xmlns:xlink="http://www.w3.org/1999/xlink" x="0px" y="0px"
	 viewBox="0 0 233.2 118.5" style="enable-background:new 0 0 233.2 118.5;" xml:space="preserve">
<style type="text/css">
	.as1 .st0{fill:none;stroke:#F59C26;stroke-width:14.25;stroke-linecap:round;stroke-linejoin:round;stroke-miterlimit:10;}
	.as1 .st1{fill:#FF6900;}
</style>
<path class="st0" d="M226.1,19.6C214.5,67,154,80.1,113.9,63.4c-11.2-4.7-22-12.4-26.5-23.7S87,13.2,98.2,8.5
	c13.3-5.6,29,6.9,31.1,21.2c2.2,14.3-5.4,28.4-14.9,39.3c-11.2,13-25.8,23.4-42.3,28.2s-34.9,3.7-50-4.5"/>
<path class="st1" d="M28.9,88.3l6.1-3.8c3.3-2.1,4.4-6.5,2.3-9.9c-2.1-3.3-6.5-4.4-9.9-2.3L0,89.6l19.1,26c0.3,0.4,0.7,0.8,1.1,1.2
	c2.5,2.2,6.2,2.4,8.9,0.4c3.2-2.3,3.9-6.8,1.5-10l-3.2-4.3"/>
<path class="st1" d="M119,3.8c-7.7-4.3-16.1-5-23.5-1.9c-2.5,1-4.8,2.5-6.8,4.2c5.8-0.9,11.9,0.4,17.6,3.6
	c6.5,3.6,11.7,9.4,14.7,16.1l-0.2,0.1c0.7,1.6,1.2,3.2,1.5,4.8c2,12.9-6.1,25.3-13.2,33.5C97.9,77.1,84.5,86.1,70.2,90.3
	c-15.5,4.5-31.7,3.1-44.6-3.9c-3.4-1.9-7.8-0.6-9.7,2.8c-1.9,3.4-0.6,7.8,2.8,9.7c15,8.3,33.6,10.4,51.5,6.2c1.3-0.3,2.6-0.7,3.9-1
	c16.9-5,32.7-15.5,45.6-30.4c9.1-10.5,19.3-26.8,16.5-45C134.9,18.5,128.2,9,119,3.8"/>
</svg>
