<?xml version="1.0" encoding="utf-8"?>
<!-- Generator: Adobe Illustrator 22.1.0, SVG Export Plug-In . SVG Version: 6.00 Build 0)  -->
<svg version="1.1" id="Layer_1" xmlns="http://www.w3.org/2000/svg" xmlns:xlink="http://www.w3.org/1999/xlink" x="0px" y="0px"
	 viewBox="0 0 333.3 160.4" enable-background="new 0 0 333.3 160.4" xml:space="preserve" class="arrow1--svg">
<path class="arrow1--path" fill="none" stroke="#FFFFFF" stroke-width="16" stroke-miterlimit="10" stroke-linejoin="round" stroke-linecap="round" d="M0.7,0.4c0,0,24,47.9,55,83.3
	c18.5,21.1,45,43.9,84.9,58.8c62.6,23.4,114.9,3.8,180.2-30.5"/>
<path class="arrow1--arrowhead" fill="#EC691C" d="M301.1,112.1l-5.8-1.3c-4.3-1-7-5.2-6.1-9.5c0.8-3.8,4.1-6.3,7.8-6.3c0.6,0,1.2,0.1,1.7,0.2l35.2,7.8
	l-10.3,34.5c-1.3,4.2-5.7,6.6-9.9,5.4c-4.2-1.3-6.6-5.7-5.4-9.9l2.3-7.7l3.6-10.3L301.1,112.1z"/>
</svg>