<?xml version="1.0" encoding="utf-8"?>
<!-- Generator: Adobe Illustrator 22.1.0, SVG Export Plug-In . SVG Version: 6.00 Build 0)  -->
<svg class="as4" version="1.1" id="Layer_1" xmlns="http://www.w3.org/2000/svg" xmlns:xlink="http://www.w3.org/1999/xlink" x="0px" y="0px"
	 viewBox="0 0 96.2 57.7" style="enable-background:new 0 0 96.2 57.7;" xml:space="preserve">
<style type="text/css">
	.as4 .st0{fill:none;stroke:#F59C26;stroke-width:14.25;stroke-linecap:round;stroke-linejoin:round;stroke-miterlimit:10;}
	.as4 .st1{fill:#FF6900;}
</style>
<path class="st0" d="M69.4,32.3c-24.1,10.2-52-1-62.3-25.2"/>
<path class="st1" d="M69.3,40.5l-4.5,5.6c-2.5,3.1-2,7.6,1.1,10.1c3.1,2.5,7.6,2,10.1-1.1l20.2-25.2L69.5,11.5
	c-0.4-0.3-0.9-0.5-1.4-0.7c-3-1.2-6.6-0.2-8.6,2.6c-2.2,3.3-1.4,7.7,1.8,10l4.4,3"/>
<path class="st1" d="M76,29.5c-1.5-3.6-5.7-5.3-9.3-3.8c-2.4,1-4.9,1.8-7.4,2.3c-12.4,3.9-25.3,3.1-36.7-1.5
	c-8.3-3.4-15.8-8.8-21.7-15.9c6,13.5,16.8,23.4,29.5,28.6c13,5.2,27.9,5.5,41.8-0.3C75.8,37.3,77.5,33.1,76,29.5"/>
</svg>
