<?xml version="1.0" encoding="utf-8"?>
<!-- Generator: Adobe Illustrator 22.1.0, SVG Export Plug-In . SVG Version: 6.00 Build 0)  -->
<svg class="aus" version="1.1" id="Layer_1" xmlns="http://www.w3.org/2000/svg" xmlns:xlink="http://www.w3.org/1999/xlink" x="0px" y="0px"
	 viewBox="0 0 392.8 337.1" style="enable-background:new 0 0 392.8 337.1;" xml:space="preserve">
<style type="text/css">
	.aus .st0{fill:none;stroke:#0096A8;stroke-width:25.512;stroke-linecap:round;stroke-linejoin:round;stroke-miterlimit:10;}
	.aus .st1{fill:#00BFB2;}
</style>
<path class="st0" d="M354.5,42.5c-18.7,64.3-58.8,169.5-145.4,153.2c-20.7-3.9-40.5-18.8-44.8-39.4c-4.3-20.6,11.8-44.7,32.9-44.1
	c12.6,0.4,24.1,9,30,20.2c5.9,11.2,6.8,24.4,5.1,36.9c-5.5,38.7-35.3,69.4-71.2,81.7c-35.2,12.1-80.7-4-111.7,20.1
	c-17.5,13.6-23.3,36.2-36.5,53.2"/>
<path class="st1" d="M364.7,48.8l4.5,11.5c2.5,6.3,9.6,9.3,15.9,6.9c6.3-2.5,9.3-9.6,6.9-15.9L371.6,0l-49.7,24
	c-0.8,0.4-1.6,0.9-2.3,1.4c-4.4,3.5-6,9.7-3.4,14.9c2.9,6.1,10.2,8.6,16.3,5.7l8.3-4"/>
<path class="st1" d="M342.3,38.9c-13.1,45-27.9,78.6-45.4,102.9c-24.4,34-52.4,47.5-85.4,41.3c-17.5-3.3-31.7-15.4-34.7-29.5
	c-0.7-3.3-0.5-6.9,0.4-10.5l0,0c0-0.1,0.1-0.1,0.1-0.2c0.6-2.4,1.6-4.7,2.9-6.9c1.8-3.7,4.1-7.2,6.8-10.4
	c9-10.8,21.6-16.7,34.4-16.4c1,0,2,0.1,3,0.2c-7.8-6.1-17.2-9.8-26.7-10c-12.8-0.4-25.4,5.6-34.4,16.4c-10.1,12-14.4,28.5-11.4,43.1
	c5.1,24.3,27.2,44.1,54.9,49.3c11.2,2.1,22.1,2.5,32.6,1.1c11.2-1.5,22-4.9,32.3-10.4c16.7-8.8,32.2-23,45.9-42.2
	C336.8,130,352.8,93.8,366.8,46"/>
</svg>
