<?xml version="1.0" encoding="utf-8"?>
<!-- Generator: Adobe Illustrator 22.1.0, SVG Export Plug-In . SVG Version: 6.00 Build 0)  -->
<svg class="arrow2--svg" version="1.1" id="Layer_1" xmlns="http://www.w3.org/2000/svg" xmlns:xlink="http://www.w3.org/1999/xlink" x="0px" y="0px"
	 viewBox="0 0 371 544.6" enable-background="new 0 0 371 544.6" xml:space="preserve">
<g class="arrow2--arrowhead">
	<defs>
		<rect id="SVGID_1_" width="371" height="544.6"/>
	</defs>
	<clipPath id="SVGID_2_">
		<use xlink:href="#SVGID_1_"  overflow="visible"/>
	</clipPath>
	<path clip-path="url(#SVGID_2_)" fill="#FFFFFF" d="M31.2,525.3l6.7,5.5c3.4,2.8,3.9,7.8,1.1,11.3c-1.6,1.9-3.9,2.9-6.2,2.9
		c-1.8,0-3.6-0.6-5.1-1.8l-28-22.8L24.6,494c3-3.2,8.1-3.3,11.3-0.3c3.2,3,3.3,8.1,0.3,11.3l-3.5,3.7L22,518.6L31.2,525.3z"/>
</g>
<path class="arrow2--path" fill="none" stroke="#FFFFFF" stroke-width="14" stroke-linejoin="round" stroke-linecap="round" stroke-miterlimit="10" d="M362,8.1
	C324.8,10,247.4,18.8,210,62.6c-41,48-44.5,74.5-55,119c-13.6,57.7-14.5,150.5-23,213c-4.2,31-22.7,114.2-112,124.6"/>
</svg>
