<?xml version="1.0" encoding="utf-8"?>
<!-- Generator: Adobe Illustrator 22.1.0, SVG Export Plug-In . SVG Version: 6.00 Build 0)  -->
<svg version="1.1" id="Layer_1" xmlns="http://www.w3.org/2000/svg" xmlns:xlink="http://www.w3.org/1999/xlink" x="0px" y="0px"
	 viewBox="0 0 1409.8 1138.9" enable-background="new 0 0 1409.8 1138.9" xml:space="preserve">
<path class="arrow4--path" fill="none" stroke="#F59C28" stroke-width="22.677" stroke-linecap="round" stroke-miterlimit="10" d="M1390.6,1137.3
	c17.6-124.9,6.6-266.5-46.6-382c-110-238.8-380.1-401.8-643-332c-72,19.1-140.5,54.9-192.3,108.5c-51.8,53.6-85.9,125.6-87.4,200.1
	c-3.1,146.9,118.1,234,254.8,235.7c71.7,0.9,145.8-18.4,200.2-65.2c60.2-51.7,90.1-131.5,99.3-210.3
	c21.8-185.7-63-375.6-202.1-500.7C655.6,85.2,516.5,16.7,355.9,11.7C236.5,8,118,33.4,3.1,66"/>
<path class="arrow4--fill" fill="#FF6900" d="M926.9,428.9c34.1,84.7,47.9,175,37.7,261.9c-4.8,40.9-14.8,78.6-29.7,112c-16.5,37-38.6,67.7-65.8,91
	c-28.3,24.4-63.8,42.1-103.9,52.3c-33,10.4-69.1,15.9-107.1,15.9c-1.7,0-3.3,0-5,0c-59.9-0.7-116.3-17.5-161.4-47
	c48.1,40,113.9,63.1,184.4,64c1.7,0,3.3,0,5,0c79.9,0,151.7-24,202.8-67.9c29.7-25.6,53.8-58.9,71.7-99
	c15.8-35.5,26.4-75.4,31.5-118.6c9.9-84.4-1.6-173.2-33.4-258.2l-10.4-25.9c-36.5-85.6-92.4-163.7-162-226.3
	C651.8,66.6,508.8,5.1,356.2,0.4c-56.5-1.8-115.5,2.7-180.3,13.7C123.1,23,67.2,36,0,55.1l6.2,21.8C101.9,49.7,228.1,19.1,355.5,23
	c147.1,4.6,285.2,64.1,410.6,176.8c64.5,58,115.4,128.2,150,203.9L926.9,428.9z"/>
</svg>
