<?xml version="1.0" encoding="utf-8"?>
<!-- Generator: Adobe Illustrator 22.1.0, SVG Export Plug-In . SVG Version: 6.00 Build 0)  -->
<svg class="as2" version="1.1" id="Layer_1" xmlns="http://www.w3.org/2000/svg" xmlns:xlink="http://www.w3.org/1999/xlink" x="0px" y="0px"
	 viewBox="0 0 204.7 94.1" style="enable-background:new 0 0 204.7 94.1;" xml:space="preserve">
<style type="text/css">
	.as2 .st0{fill:#FF6900;}
	.as2 .st1{fill:none;stroke:#F59C26;stroke-width:14.25;stroke-linecap:round;stroke-linejoin:round;stroke-miterlimit:10;}
</style>
<path class="st0" d="M179.1,77l-3.9,6.1c-2.1,3.3-1.2,7.8,2.1,9.9c3.3,2.1,7.8,1.2,9.9-2.1l17.5-27.1l-28.3-15.5
	c-0.5-0.3-1-0.5-1.4-0.6c-3.2-0.9-6.6,0.4-8.3,3.4c-1.9,3.5-0.6,7.8,2.8,9.7l4.7,2.6"/>
<path class="st1" d="M7.1,16.2c15.5-8.8,34.4-11.3,51.7-7c31.6,7.9,44.8,39.2,72.4,53.9c14.2,7.6,31.1,11,46.6,6.8"/>
<path class="st0" d="M184.6,68c-1-3.8-4.9-6-8.7-5c-12.5,3.4-27.6,1.1-41.4-6.2c-10.8-5.7-19.3-14.3-28.2-23.4
	C93.7,20.5,80.6,7.3,60.5,2.3c-7.8-1.9-15.8-2.6-23.8-2.1c0.6,0.1,1.2,0.3,1.8,0.4c20.1,5,33.2,18.3,45.8,31.1c0.3,0.3,0.7,0.7,1,1
	c3.7,3.4,7.2,7,10.8,10.6c9.3,9.5,19,19.2,31.7,26c11.7,6.2,24,9.4,35.8,9.4c5.5,0,10.8-0.7,15.9-2.1
	C183.4,75.7,185.7,71.8,184.6,68"/>
</svg>
