<?xml version="1.0" encoding="utf-8"?>
<!-- Generator: Adobe Illustrator 22.1.0, SVG Export Plug-In . SVG Version: 6.00 Build 0)  -->
<svg version="1.1" id="Layer_1" xmlns="http://www.w3.org/2000/svg" xmlns:xlink="http://www.w3.org/1999/xlink" x="0px" y="0px"
	 viewBox="0 0 819.1 624.4" style="enable-background:new 0 0 819.1 624.4;" xml:space="preserve">
<style type="text/css">
	.st0{clip-path:url(#SVGID_2_);fill:none;stroke:#DE9A36;stroke-width:25.512;stroke-linecap:round;stroke-miterlimit:10;}
	.st1{clip-path:url(#SVGID_2_);fill:#DF6919;}
</style>
<g>
	<defs>
		<rect id="SVGID_1_" width="819.1" height="624.4"/>
	</defs>
	<clipPath id="SVGID_2_">
		<use xlink:href="#SVGID_1_"  style="overflow:visible;"/>
	</clipPath>
	<path class="st0" d="M784.1,83C645.2-13.6,444.2-12.1,313.2,97.1c-106,88.4-156.7,228.2-107.9,359.3
		c28.3,76,103.3,131.5,152.8,144.6c64.1,17,132.2,13.9,192.7-12.1c40.9-17.6,79-45.1,103.5-82.8c43.2-66.4,48.5-157.2,21.5-230.5
		c-20.3-55.2-59.3-104.7-108.4-138.2c-57.4-39.2-122-51.2-189.9-55.1C277,76.6,176,124,108.1,196.8c-51.6,55.4-85.4,127-95.3,202.1"
		/>
	<path class="st1" d="M773.9,90.2l-11.5,2.7c-6.3,1.5-10.2,7.8-8.7,14c1.5,6.3,7.8,10.2,14,8.7l51.4-12l-15.8-50.3
		c-0.3-0.8-0.6-1.6-1-2.3c-2.7-4.6-8.3-7-13.6-5.3c-6.2,1.9-9.6,8.5-7.7,14.6l2.6,8.4"/>
	<path class="st1" d="M791.4,72.5C721.3,23.8,634-1.9,545.4,0.1C455.3,2.2,370,33.2,305,87.3c-55.3,46.1-95.4,104.7-116,169.6
		c-21.6,67.9-20.1,138.4,4.3,204c17.3,46.4,48.7,80.5,72,101c28.8,25.3,61.4,44,89.5,51.5c27.6,7.3,55.7,10.9,83.4,10.9
		c41,0,81.1-7.9,117.6-23.6c33.1-14.2,78.9-40.9,109.2-87.5c21.9-33.7,35.4-74.7,39.1-118.5c3.5-42.1-2.1-84.8-16.3-123.3
		c-12.2-33.1-30.6-64.1-53.8-91.1c15.5,21.7,28.2,45.3,37.3,70.1c14.2,38.5,19.8,81.1,16.3,123.3c-3.7,43.9-17.2,84.9-39.1,118.6
		c-1.8,2.7-3.6,5.4-5.5,8c-26.8,40.7-67.6,64.3-97.2,77.1c-56,24.1-121.5,28.1-184.4,11.5c-24.1-6.4-53.7-23.6-79.2-46
		c-21.1-18.5-49.5-49.3-64.9-90.7c-22.4-60.2-23.7-124.9-3.9-187.4c19.1-60.2,56.5-114.7,108-157.7C381.9,56.4,461.6,27.6,546,25.6
		c83.2-1.9,165.1,22.2,230.8,67.8c5.8,4,13.7,2.6,17.8-3.2C798.6,84.5,797.1,76.5,791.4,72.5"/>
</g>
</svg>
