<?xml version="1.0" encoding="utf-8"?>
<!-- Generator: Adobe Illustrator 22.1.0, SVG Export Plug-In . SVG Version: 6.00 Build 0)  -->
<svg class="as5" version="1.1" id="Layer_1" xmlns="http://www.w3.org/2000/svg" xmlns:xlink="http://www.w3.org/1999/xlink" x="0px" y="0px"
	 viewBox="0 0 115.5 196.8" style="enable-background:new 0 0 115.5 196.8;" xml:space="preserve">
<style type="text/css">
	.as5 .st0{clip-path:url(#SVGID_2_);fill:#FF6900;}
	
	.as5 .st1{clip-path:url(#SVGID_2_);fill:none;stroke:#F59C26;stroke-width:14.25;stroke-linecap:round;stroke-linejoin:round;stroke-miterlimit:10;}
</style>
<g>
	<defs>
		<rect id="SVGID_1_" width="115.5" height="196.8"/>
	</defs>
	<clipPath id="SVGID_2_">
		<use xlink:href="#SVGID_1_"  style="overflow:visible;"/>
	</clipPath>
	<path class="st0" d="M87.9,180.9l-6.6,2.4c-3.6,1.3-5.5,5.3-4.2,8.9c1.3,3.6,5.3,5.5,8.9,4.2l29.5-10.6l-12.7-28.7
		c-0.2-0.5-0.5-0.9-0.8-1.3c-1.9-2.6-5.4-3.6-8.4-2.2c-3.5,1.6-5.1,5.7-3.5,9.2l2.1,4.8"/>
	<path class="st1" d="M25.7,7.1c-14.3,29.1-26,62.5-12.8,97c13.2,34.5,45,57.4,77,70.1"/>
	<path class="st0" d="M96.5,176.9c1.5-3.7-0.3-7.8-4-9.3c-9.6-3.8-22.5-10-35.2-19.2C38.1,136,18,117.3,7.6,90.4
		C3.1,78.7,1.4,67.1,1.4,55.9c-2.5,16.2-1.9,33.4,4.8,50.8c16.5,43,57.8,64.9,81,74.2C90.9,182.3,95,180.5,96.5,176.9"/>
</g>
</svg>
