<svg id="Layer_1" data-name="Layer 1" xmlns="http://www.w3.org/2000/svg" xmlns:xlink="http://www.w3.org/1999/xlink" viewBox="0 0 158.64 264.04">
	<defs>
		<style>
			.cls-1,.cls-4{fill:none;}
			.cls-2{clip-path:url(#clip-path);}
			.cls-3{fill:#ff6900;}
			.cls-4{stroke:#f59c26;stroke-linecap:round;stroke-linejoin:round;stroke-width:14.25px;}
		</style>
		<clipPath id="clip-path">
			<rect class="cls-1" width="158.64" height="264.04"/>
		</clipPath>
	</defs>
	
	<title>Artboard 1</title>
	<g class="cls-2">
		<path class="cls-3" d="M79.3,248.36,86,250.47a6.95,6.95,0,0,1-4.17,13.25l-29.9-9.41,11.56-29.14a6.85,6.85,0,0,1,.71-1.34,6.95,6.95,0,0,1,12.2,6.47l-1.92,4.84"/>
		<path class="cls-4" d="M7.12,7.88c52-5.31,105.07,17.61,130.19,64.69a123.76,123.76,0,0,1,6,101.75A123.76,123.76,0,0,1,70,245.13"/>
		<path class="cls-3" d="M67.68,238.4a116.27,116.27,0,0,0,69-66.67c.94-2.4,1.78-4.84,2.54-7.3a130.84,130.84,0,0,0-8.31-102.34A126.1,126.1,0,0,0,87.09,15c24.52,12.15,44,30.84,56.51,54.2A130.76,130.76,0,0,1,150,176.9a130.74,130.74,0,0,1-77.59,74.95,7.13,7.13,0,1,1-4.71-13.45"/>
	</g>
</svg>