<?xml version="1.0" encoding="utf-8"?>
<!-- Generator: Adobe Illustrator 22.1.0, SVG Export Plug-In . SVG Version: 6.00 Build 0)  -->
<svg version="1.1" id="Layer_1" xmlns="http://www.w3.org/2000/svg" xmlns:xlink="http://www.w3.org/1999/xlink" x="0px" y="0px"
	 viewBox="0 0 380.4 507" style="enable-background:new 0 0 380.4 507;" xml:space="preserve">
<style type="text/css">
	.st0{clip-path:url(#SVGID_2_);fill:none;stroke:#F59C29;stroke-width:25.512;stroke-miterlimit:10;}
	.st1{clip-path:url(#SVGID_2_);fill:#EC6B00;}
	
		.st2{clip-path:url(#SVGID_2_);fill:none;stroke:#EC6B00;stroke-width:25.512;stroke-linecap:round;stroke-linejoin:round;stroke-miterlimit:10;}
</style>
<g>
	<defs>
		<rect id="SVGID_1_" width="380.4" height="507"/>
	</defs>
	<clipPath id="SVGID_2_">
		<use xlink:href="#SVGID_1_"  style="overflow:visible;"/>
	</clipPath>
	<path class="st0" d="M55.2,9C28.4,35.8,11.8,73.2,12.8,111c1,37.8,20.3,75.3,52,96c31.7,20.7,75.3,22.8,107.7,3.2
		c29.9-18.1,48.2-50.8,83.3-60.1c29.7-7.9,63-0.9,85.1,20.2c16.3,15.5,25.6,37.7,26.7,60.1c1,21.1-10.1,42.5-23.5,58.2
		c-10.3,12.2-22.4,22.9-32.5,35.2c-31.3,37.9-43.6,95.6-31.8,143.3"/>
	<path class="st1" d="M380.3,229.8c-1.3-26.4-12.4-51.5-30.7-68.8c-24.9-23.6-62.1-32.5-97.2-23.3c-24,6.3-40.5,21.6-56.3,36.5
		c10.5-8.2,22.1-15.2,36.5-19c30.9-8.2,63.5-2.2,87.8,15.5c4.2,2.5,8.1,5.5,11.6,8.8c13.5,12.8,21.8,31.6,22.7,51.5
		c0.7,15.1-6.7,33.1-20.4,49.3c-4.7,5.5-9.7,10.7-15,16.2c-5.9,6.1-12,12.3-17.6,19.1c-33.4,40.5-47.2,102.6-34.3,154.5l24.8-6.1
		c-11-44.5,0.7-97.6,29.2-132.1c5-6,10.4-11.6,16.2-17.6c5.4-5.6,11-11.3,16.2-17.5C371.7,275.8,381.4,251.3,380.3,229.8"/>
	<path class="st2" d="M287.5,493.4c0.1,0.3,0.2,0.6,0.3,0.9"/>
</g>
</svg>
