<?xml version="1.0" encoding="utf-8"?>
<!-- Generator: Adobe Illustrator 22.1.0, SVG Export Plug-In . SVG Version: 6.00 Build 0)  -->
<svg class="as3" version="1.1" id="Layer_1" xmlns="http://www.w3.org/2000/svg" xmlns:xlink="http://www.w3.org/1999/xlink" x="0px" y="0px"
	 viewBox="0 0 194.1 109.4" style="enable-background:new 0 0 194.1 109.4;" xml:space="preserve">
<style type="text/css">
	.as3 .st0{fill:#FF6900;}
	.as3 .st1{fill:none;stroke:#F59C26;stroke-width:14.25;stroke-linecap:round;stroke-linejoin:round;stroke-miterlimit:10;}
</style>
<path class="st0" d="M23.6,93l3.3,6.2c1.8,3.4,0.5,7.6-2.9,9.4c-3.4,1.8-7.6,0.5-9.4-2.9L0,77.9l28.7-12.5c0.5-0.2,1-0.4,1.5-0.5
	c3.1-0.6,6.4,1,7.7,4.1c1.5,3.5-0.1,7.6-3.6,9.1l-4.8,2.1"/>
<path class="st1" d="M187,7.1c-9.1,31.1-23.1,63.7-56.2,80.1c-33.1,16.4-72,11.8-104.1-0.5"/>
<path class="st0" d="M20,84.2c1.4-3.7,5.5-5.5,9.2-4.1c9.6,3.7,23.3,7.9,38.9,9.7c22.6,3.9,50.1,3.7,75.9-9.1
	c11.2-5.6,20.3-12.9,27.9-21.2c-9.1,13.7-21.2,25.9-37.9,34.2c-41.2,20.5-86.5,8.7-109.8-0.2C20.5,92,18.7,87.9,20,84.2"/>
</svg>
