<?xml version="1.0" encoding="utf-8"?>
<!-- Generator: Adobe Illustrator 22.1.0, SVG Export Plug-In . SVG Version: 6.00 Build 0)  -->
<svg version="1.1" id="Layer_1" xmlns="http://www.w3.org/2000/svg" xmlns:xlink="http://www.w3.org/1999/xlink" x="0px" y="0px"
	 viewBox="0 0 98.2 43.2" style="enable-background:new 0 0 98.2 43.2;" xml:space="preserve">
<style type="text/css">
	
		.st0{clip-path:url(#SVGID_2_);fill:none;stroke:#F59C26;stroke-width:14.25;stroke-linecap:round;stroke-linejoin:round;stroke-miterlimit:10;}
	.st1{clip-path:url(#SVGID_2_);fill:#FF6900;}
</style>
<g>
	<defs>
		<rect id="SVGID_1_" width="98.2" height="43.2"/>
	</defs>
	<clipPath id="SVGID_2_">
		<use xlink:href="#SVGID_1_"  style="overflow:visible;"/>
	</clipPath>
	<path class="st0" d="M74.3,19.5C55.8,38,25.7,38,7.1,19.5"/>
	<path class="st1" d="M77.3,27.1L75.2,34c-1.1,3.8,1,7.8,4.8,8.9c3.8,1.1,7.8-1,8.9-4.8l9.3-31l-31.5-7c-0.5-0.1-1-0.2-1.6-0.2
		c-3.3,0-6.2,2.3-7,5.6c-0.9,3.9,1.6,7.7,5.4,8.5l5.2,1.2"/>
	<path class="st1" d="M79.3,14.4c-2.8-2.8-7.3-2.8-10.1,0c-1.9,1.9-3.9,3.5-6,4.9c-10,8.2-22.3,12.3-34.6,12.3c-9,0-18-2.2-26.1-6.6
		C13.2,35.3,27,40.5,40.7,40.5c14,0,28-5.3,38.6-16C82.1,21.7,82.1,17.2,79.3,14.4"/>
</g>
</svg>
