<?xml version="1.0" encoding="utf-8"?>
<!-- Generator: Adobe Illustrator 22.1.0, SVG Export Plug-In . SVG Version: 6.00 Build 0)  -->
<svg class="ch" version="1.1" id="Layer_1" xmlns="http://www.w3.org/2000/svg" xmlns:xlink="http://www.w3.org/1999/xlink" x="0px" y="0px"
	 viewBox="0 0 159.4 518" style="enable-background:new 0 0 159.4 518;" xml:space="preserve">
<style type="text/css">
	.ch .st0{fill:none;stroke:#0096A8;stroke-width:17.1969;stroke-miterlimit:10;stroke-linecap:round;stroke-linejoin:round;}
	.ch .st1{fill:none;stroke:#F59C26;stroke-width:17.1969;stroke-miterlimit:10;stroke-linecap:round;stroke-linejoin:round;}
	.ch .st2{fill:#FF6900;}
	.ch .st3{fill:#00BFB2;}
</style>
<path class="st0" d="M35.3,47.7l0,136.2c0,21.3,17.2,38.5,38.5,38.5l4.8,0c21.3,0,38.5-17.2,38.5-38.5l0-136.2
	c0-21.3-17.2-38.5-38.5-38.5h-4.8C52.5,9.1,35.3,26.4,35.3,47.7z M129.9,341.5l-19.8,134.7c-3.1,21.1-22.7,35.6-43.7,32.5l-4.8-0.7
	C40.5,505,26,485.4,29.1,464.3l19.8-134.7c3.1-21.1,22.7-35.6,43.7-32.5l4.8,0.7C118.4,300.9,133,320.5,129.9,341.5z"/>
<path class="st1" d="M10.3,228.5l22.6,90.2c7.6,30.2,38.2,48.6,68.4,41l6.9-1.7c30.2-7.6,48.6-38.2,41-68.4l-22.6-90.2
	c-7.6-30.2-38.2-48.6-68.4-41l-6.9,1.7C21.1,167.7,2.7,198.3,10.3,228.5z"/>
<path class="st2" d="M52.5,150.4c-36.9,9.2-59.5,46.8-50.2,83.7l20.9,83.4c9.2,36.9,46.8,59.5,83.7,50.2
	c18.5-4.6,33.3-16.3,42.4-31.5c9.1-15.2,12.4-33.8,7.8-52.2l-0.3-1.3c0,12.6-3.5,24.8-9.9,35.4c-9.1,15.2-24,26.9-42.4,31.5l0-0.1
	c-0.7,0.2-1.3,0.4-2,0.6c-27.2,6.8-54.8-9.8-61.6-36.9L20,229.7c-3.4-13.6-1-27.3,5.7-38.4c0.2-0.3,0.3-0.5,0.5-0.8l-0.2-0.3
	c9.2-14.5,23.7-25.6,41.6-30.1c16.1-4,32.2-2,46.1,4.5C97.4,150.9,74.8,144.8,52.5,150.4"/>
<path class="st3" d="M49.6,199c-3.4-5.2-5.3-11.2-5.3-17.6l0-131.4c0-1,0.1-1.9,0.1-2.8h-0.1C44.5,26.1,57.6,8,76.2,0.7V0
	C48.6,0,26.1,22.5,26.1,50.1l0,131.4c0,13.4,5.2,26,14.7,35.4c9.5,9.5,22,14.7,35.4,14.7c9.9,0,19-2.9,26.8-7.8
	c-3.1,0.6-6.3,0.9-9.6,0.9c-13.4,0-26-5.2-35.4-14.7C54.6,206.7,51.8,203,49.6,199L49.6,199z"/>
<path class="st3" d="M93.6,489.1c4.1-4.6,6.9-10.3,7.8-16.6l19.1-130c0.1-1,0.2-1.9,0.3-2.8l0.1,0c3.1-20.9-7.3-40.7-24.6-50.7
	l0.1-0.6c27.3,4,46.3,29.5,42.3,56.8l-19.1,130c-1.9,13.2-8.9,24.9-19.7,32.9c-10.7,8-23.9,11.3-37.2,9.4
	c-9.8-1.4-18.4-5.6-25.4-11.6c3,1.1,6.1,1.8,9.4,2.3c13.2,1.9,26.4-1.4,37.2-9.4C87.6,496,90.9,492.8,93.6,489.1L93.6,489.1z"/>
</svg>
