<?xml version="1.0" encoding="utf-8"?>
<!-- Generator: Adobe Illustrator 22.1.0, SVG Export Plug-In . SVG Version: 6.00 Build 0)  -->
<svg class="hgs" version="1.1" id="Layer_1" xmlns="http://www.w3.org/2000/svg" xmlns:xlink="http://www.w3.org/1999/xlink" x="0px" y="0px"
	 viewBox="0 0 526.9 401.6" style="enable-background:new 0 0 526.9 401.6;" xml:space="preserve">
<style type="text/css">
	.hgs .st0{fill:#545959;}
	.hgs .st1{fill:none;stroke:#F59C26;stroke-width:16.4108;stroke-linecap:round;stroke-miterlimit:10;}
	.hgs .st2{fill:#FF6900;}
</style>
<path class="st0" d="M298.5,143.4c1.2,0,2.1-0.2,2.8-0.7c0.7-0.5,1-1.2,1-2c0-0.7-0.2-1.3-0.6-1.7c-0.4-0.4-1.1-0.7-2-1l-1.5-0.3
	c-0.4-0.1-0.6-0.2-0.8-0.3c-0.1-0.1-0.2-0.3-0.2-0.5c0-0.3,0.1-0.5,0.4-0.6c0.2-0.2,0.6-0.2,1-0.2c0.4,0,0.9,0.1,1.4,0.2
	c0.5,0.2,0.9,0.4,1.4,0.7l0.7-1.8c-0.5-0.4-1-0.6-1.6-0.8c-0.6-0.2-1.2-0.3-1.9-0.3c-0.8,0-1.4,0.1-2,0.4c-0.6,0.2-1,0.6-1.4,1
	c-0.3,0.4-0.5,0.9-0.5,1.5c0,0.7,0.2,1.2,0.6,1.6c0.4,0.4,1,0.7,1.9,0.9l1.5,0.3c0.4,0.1,0.8,0.2,0.9,0.3c0.2,0.1,0.3,0.3,0.3,0.5
	c0,0.3-0.1,0.5-0.4,0.6c-0.2,0.1-0.6,0.2-1.1,0.2c-0.6,0-1.2-0.1-1.8-0.3c-0.6-0.2-1.1-0.4-1.6-0.8l-0.7,1.9
	C295.5,143,296.8,143.4,298.5,143.4 M289.4,135.9c1,0,1.6,0.6,1.7,1.7h-3.6c0.1-0.6,0.3-1,0.6-1.3
	C288.5,136.1,288.9,135.9,289.4,135.9 M293.4,138.6c0-1.4-0.4-2.5-1.1-3.3c-0.7-0.8-1.7-1.2-3-1.2c-0.8,0-1.6,0.2-2.3,0.6
	c-0.7,0.4-1.2,1-1.6,1.7c-0.4,0.7-0.6,1.5-0.6,2.4c0,1.4,0.4,2.6,1.3,3.4c0.9,0.8,2,1.2,3.6,1.2c0.6,0,1.3-0.1,1.9-0.3
	c0.6-0.2,1.2-0.5,1.6-0.8l-0.7-1.8c-0.4,0.3-0.8,0.5-1.3,0.7c-0.5,0.2-0.9,0.2-1.4,0.2c-0.8,0-1.3-0.2-1.7-0.6
	c-0.4-0.4-0.6-1-0.7-1.8h5.9V138.6z M283.2,130.2h-2.7v13h2.7V130.2z M273.7,141.4c-0.7,0-1.2-0.2-1.5-0.7c-0.4-0.4-0.5-1.1-0.5-1.9
	c0-0.8,0.2-1.5,0.5-2c0.4-0.5,0.9-0.7,1.5-0.7c0.7,0,1.2,0.2,1.5,0.7c0.4,0.5,0.5,1.1,0.5,2c0,0.8-0.2,1.5-0.5,1.9
	C274.8,141.1,274.3,141.4,273.7,141.4 M275.7,134.3v1.3c-0.3-0.5-0.7-0.8-1.2-1.1c-0.5-0.3-1.1-0.4-1.7-0.4c-0.8,0-1.5,0.2-2.1,0.6
	c-0.6,0.4-1.1,1-1.4,1.7c-0.3,0.7-0.5,1.5-0.5,2.5s0.2,1.7,0.5,2.4c0.3,0.7,0.8,1.2,1.4,1.6c0.6,0.4,1.3,0.6,2.1,0.6
	c0.6,0,1.2-0.1,1.7-0.4c0.5-0.3,0.9-0.6,1.2-1.1v1.3h2.6v-9H275.7z M262.3,143.4c1.6,0,2.9-0.3,3.8-1c0.9-0.7,1.4-1.6,1.4-2.8
	c0-1-0.4-1.8-1.1-2.3c-0.7-0.6-1.9-1-3.5-1.4c-0.7-0.1-1.2-0.3-1.6-0.4c-0.4-0.1-0.6-0.3-0.8-0.5c-0.2-0.2-0.2-0.4-0.2-0.7
	c0-0.5,0.2-0.9,0.6-1.2c0.4-0.3,1-0.4,1.7-0.4c1.3,0,2.6,0.4,3.7,1.3l0.9-2c-0.5-0.4-1.2-0.8-2-1.1c-0.8-0.3-1.7-0.4-2.6-0.4
	c-1,0-1.9,0.2-2.6,0.5c-0.8,0.3-1.3,0.8-1.8,1.4c-0.4,0.6-0.6,1.3-0.6,2c0,0.7,0.1,1.3,0.5,1.7c0.3,0.5,0.8,0.9,1.4,1.2
	c0.7,0.3,1.5,0.6,2.6,0.8c1,0.2,1.7,0.4,2.1,0.7c0.4,0.2,0.6,0.5,0.6,0.9c0,0.5-0.2,0.8-0.6,1.1c-0.4,0.3-1,0.4-1.8,0.4
	c-1.5,0-2.9-0.4-4.1-1.3l-0.9,2c0.6,0.5,1.3,0.8,2.2,1.1C260.5,143.3,261.4,143.4,262.3,143.4"/>
<path class="st0" d="M344.2,220.9c1.2,0,2.1-0.2,2.8-0.7c0.7-0.5,1-1.2,1-2c0-0.7-0.2-1.3-0.6-1.7c-0.4-0.4-1.1-0.7-2-1l-1.5-0.3
	c-0.4-0.1-0.6-0.2-0.8-0.3c-0.1-0.1-0.2-0.3-0.2-0.5c0-0.3,0.1-0.5,0.4-0.6c0.2-0.2,0.6-0.2,1-0.2c0.4,0,0.9,0.1,1.4,0.2
	c0.5,0.2,0.9,0.4,1.4,0.7l0.7-1.8c-0.5-0.4-1-0.6-1.6-0.8c-0.6-0.2-1.2-0.3-1.9-0.3c-0.8,0-1.4,0.1-2,0.4c-0.6,0.2-1,0.6-1.4,1
	c-0.3,0.4-0.5,0.9-0.5,1.5c0,0.7,0.2,1.2,0.6,1.6c0.4,0.4,1,0.7,1.9,0.9l1.5,0.3c0.4,0.1,0.8,0.2,0.9,0.3c0.2,0.1,0.3,0.3,0.3,0.5
	c0,0.3-0.1,0.5-0.4,0.6c-0.2,0.1-0.6,0.2-1.1,0.2c-0.6,0-1.2-0.1-1.8-0.3c-0.6-0.2-1.1-0.4-1.6-0.8l-0.7,1.9
	C341.2,220.6,342.5,220.9,344.2,220.9 M335.9,210.1h2.8v-2.5h-2.8V210.1z M338.6,211.8H336v9h2.7V211.8z M330.5,220.9
	c1.2,0,2.1-0.2,2.8-0.7c0.7-0.5,1-1.2,1-2c0-0.7-0.2-1.3-0.6-1.7c-0.4-0.4-1.1-0.7-2-1l-1.5-0.3c-0.4-0.1-0.6-0.2-0.8-0.3
	c-0.1-0.1-0.2-0.3-0.2-0.5c0-0.3,0.1-0.5,0.4-0.6c0.2-0.2,0.6-0.2,1-0.2c0.4,0,0.9,0.1,1.4,0.2c0.5,0.2,0.9,0.4,1.4,0.7l0.7-1.8
	c-0.5-0.4-1-0.6-1.6-0.8c-0.6-0.2-1.2-0.3-1.9-0.3c-0.8,0-1.4,0.1-2,0.4c-0.6,0.2-1,0.6-1.4,1c-0.3,0.4-0.5,0.9-0.5,1.5
	c0,0.7,0.2,1.2,0.6,1.6c0.4,0.4,1,0.7,1.9,0.9l1.5,0.3c0.4,0.1,0.8,0.2,0.9,0.3c0.2,0.1,0.3,0.3,0.3,0.5c0,0.3-0.1,0.5-0.4,0.6
	c-0.2,0.1-0.6,0.2-1.1,0.2c-0.6,0-1.2-0.1-1.8-0.3c-0.6-0.2-1.1-0.4-1.6-0.8l-0.7,1.9C327.4,220.6,328.8,220.9,330.5,220.9
	 M323.6,211.8l-2.4,5.8l-2.3-5.8h-2.8l3.7,8.5l-0.3,0.6c-0.2,0.5-0.6,0.9-1,1.2c-0.4,0.3-1,0.5-1.9,0.7l0.6,2.1
	c1.1-0.2,2.1-0.5,2.8-1c0.8-0.5,1.4-1.4,1.9-2.5l4.1-9.5H323.6z M315.2,207.8h-2.7v13h2.7V207.8z M305.7,218.9
	c-0.7,0-1.2-0.2-1.5-0.7c-0.4-0.4-0.5-1.1-0.5-1.9c0-0.8,0.2-1.5,0.5-2c0.4-0.5,0.9-0.7,1.5-0.7c0.7,0,1.2,0.2,1.5,0.7
	c0.4,0.5,0.5,1.1,0.5,2c0,0.8-0.2,1.5-0.5,1.9C306.9,218.7,306.4,218.9,305.7,218.9 M307.8,211.8v1.3c-0.3-0.5-0.7-0.8-1.2-1.1
	c-0.5-0.3-1.1-0.4-1.7-0.4c-0.8,0-1.5,0.2-2.1,0.6c-0.6,0.4-1.1,1-1.4,1.7c-0.3,0.7-0.5,1.5-0.5,2.5s0.2,1.7,0.5,2.4
	c0.3,0.7,0.8,1.2,1.4,1.6c0.6,0.4,1.3,0.6,2.1,0.6c0.6,0,1.2-0.1,1.7-0.4c0.5-0.3,0.9-0.6,1.2-1.1v1.3h2.6v-9H307.8z M296.1,211.6
	c-0.6,0-1.2,0.1-1.7,0.4c-0.5,0.3-0.9,0.7-1.2,1.2l-0.2-1.4h-2.5c0.1,0.8,0.1,1.6,0.1,2.6v6.4h2.7v-5c0-0.6,0.2-1.1,0.5-1.5
	c0.4-0.4,0.8-0.6,1.4-0.6c0.5,0,0.9,0.1,1.1,0.4c0.2,0.3,0.3,0.7,0.3,1.4v5.3h2.7v-5.4C299.3,212.8,298.2,211.6,296.1,211.6
	 M282.8,211.2l2,4.7h-4.1L282.8,211.2z M289.7,220.8l-5.8-12.6h-2.2l-5.8,12.6h2.8l1.2-2.8h5.9l1.2,2.8H289.7z M270.8,213.8v-2h-2.3
	v-3l-2.7,0.9v2.1h-1.7v2h1.7v3.5c0,1.1,0.3,2,0.9,2.6c0.6,0.6,1.4,0.9,2.5,0.9c0.6,0,1.1-0.1,1.5-0.2v-2.1c-0.3,0.1-0.6,0.1-0.9,0.1
	c-0.4,0-0.7-0.1-1-0.3c-0.3-0.2-0.4-0.6-0.4-1.1v-3.5H270.8z M259.6,213.5c1,0,1.6,0.6,1.7,1.7h-3.6c0.1-0.6,0.3-1,0.6-1.3
	C258.7,213.6,259.1,213.5,259.6,213.5 M263.6,216.1c0-1.4-0.4-2.5-1.1-3.3c-0.7-0.8-1.7-1.2-3-1.2c-0.8,0-1.6,0.2-2.3,0.6
	c-0.7,0.4-1.2,1-1.6,1.7c-0.4,0.7-0.6,1.5-0.6,2.4c0,1.4,0.4,2.6,1.3,3.4c0.9,0.8,2,1.2,3.6,1.2c0.6,0,1.3-0.1,1.9-0.3
	c0.6-0.2,1.2-0.5,1.6-0.8l-0.7-1.8c-0.4,0.3-0.8,0.5-1.3,0.7c-0.5,0.2-0.9,0.2-1.4,0.2c-0.8,0-1.3-0.2-1.7-0.6
	c-0.4-0.4-0.6-1-0.7-1.8h5.9V216.1z M251,216.1l3.8-4.3h-3.2l-3.4,3.8v-7.9h-2.7v13h2.7v-4l3.5,4h3.3L251,216.1z M243.5,211.6
	c-0.6,0-1.1,0.2-1.6,0.5c-0.5,0.3-0.8,0.7-1.1,1.3l-0.2-1.5h-2.5c0.1,0.8,0.1,1.6,0.1,2.6v6.4h2.7v-4.7c0-0.7,0.2-1.2,0.6-1.6
	c0.4-0.4,0.9-0.6,1.6-0.6c0.4,0,0.9,0.1,1.3,0.3l0-2.4C244.2,211.7,243.9,211.6,243.5,211.6 M231.4,218.9c-0.7,0-1.2-0.2-1.5-0.7
	c-0.4-0.4-0.5-1.1-0.5-1.9c0-0.8,0.2-1.5,0.5-2c0.4-0.5,0.9-0.7,1.5-0.7c0.7,0,1.2,0.2,1.5,0.7c0.4,0.5,0.5,1.1,0.5,2
	c0,0.8-0.2,1.5-0.5,1.9C232.6,218.7,232.1,218.9,231.4,218.9 M233.5,211.8v1.3c-0.3-0.5-0.7-0.8-1.2-1.1c-0.5-0.3-1.1-0.4-1.7-0.4
	c-0.8,0-1.5,0.2-2.1,0.6c-0.6,0.4-1.1,1-1.4,1.7c-0.3,0.7-0.5,1.5-0.5,2.5s0.2,1.7,0.5,2.4c0.3,0.7,0.8,1.2,1.4,1.6
	c0.6,0.4,1.3,0.6,2.1,0.6c0.6,0,1.2-0.1,1.7-0.4c0.5-0.3,0.9-0.6,1.2-1.1v1.3h2.6v-9H233.5z M218.5,217.5l-4.1-9.3h-2.2v12.6h2.4
	V214l2.9,6.8h1.8l2.9-6.9v6.9h2.4v-12.6h-2.2L218.5,217.5z"/>
<path class="st0" d="M383.3,250.6c-0.6,0-1.2,0.1-1.7,0.4c-0.5,0.3-0.9,0.7-1.2,1.2l-0.2-1.4h-2.5c0.1,0.8,0.1,1.6,0.1,2.6v6.4h2.7
	v-5c0-0.6,0.2-1.1,0.5-1.5c0.4-0.4,0.8-0.6,1.4-0.6c0.5,0,0.9,0.1,1.1,0.4c0.2,0.3,0.3,0.7,0.3,1.4v5.3h2.7v-5.4
	C386.4,251.9,385.4,250.6,383.3,250.6 M371.3,257.9c-1.4,0-2.1-0.9-2.1-2.6c0-0.9,0.2-1.5,0.5-2c0.4-0.4,0.9-0.7,1.5-0.7
	c0.7,0,1.2,0.2,1.5,0.7c0.3,0.4,0.5,1.1,0.5,2c0,0.9-0.2,1.5-0.5,2C372.5,257.7,372,257.9,371.3,257.9 M371.3,260
	c0.9,0,1.8-0.2,2.5-0.6c0.7-0.4,1.3-0.9,1.6-1.6c0.4-0.7,0.6-1.5,0.6-2.5c0-0.9-0.2-1.8-0.6-2.5c-0.4-0.7-0.9-1.3-1.6-1.6
	c-0.7-0.4-1.5-0.6-2.5-0.6c-1,0-1.8,0.2-2.5,0.6c-0.7,0.4-1.3,0.9-1.6,1.6c-0.4,0.7-0.6,1.5-0.6,2.5c0,0.9,0.2,1.8,0.6,2.5
	c0.4,0.7,0.9,1.3,1.6,1.6C369.5,259.8,370.4,260,371.3,260 M362.1,249.1h2.8v-2.5h-2.8V249.1z M364.9,250.8h-2.7v9h2.7V250.8z
	 M360.8,252.8v-2h-2.3v-3l-2.7,0.9v2.1h-1.7v2h1.7v3.5c0,1.1,0.3,2,0.9,2.6c0.6,0.6,1.4,0.9,2.5,0.9c0.6,0,1.1-0.1,1.5-0.2v-2.1
	c-0.3,0.1-0.6,0.1-0.9,0.1c-0.4,0-0.7-0.1-1-0.3c-0.3-0.2-0.4-0.6-0.4-1.1v-3.5H360.8z M348.3,257.9c-0.7,0-1.2-0.2-1.5-0.7
	c-0.4-0.4-0.5-1.1-0.5-1.9c0-0.8,0.2-1.5,0.5-2c0.4-0.5,0.9-0.7,1.5-0.7c0.7,0,1.2,0.2,1.5,0.7c0.4,0.5,0.5,1.1,0.5,2
	s-0.2,1.5-0.5,1.9C349.5,257.7,349,257.9,348.3,257.9 M350.4,250.8v1.3c-0.3-0.5-0.7-0.8-1.2-1.1c-0.5-0.3-1.1-0.4-1.7-0.4
	c-0.8,0-1.5,0.2-2.1,0.6c-0.6,0.4-1.1,1-1.4,1.7c-0.3,0.7-0.5,1.5-0.5,2.5s0.2,1.7,0.5,2.4c0.3,0.7,0.8,1.2,1.4,1.6
	c0.6,0.4,1.3,0.6,2.1,0.6c0.6,0,1.2-0.1,1.7-0.4c0.5-0.3,0.9-0.6,1.2-1.1v1.3h2.6v-9H350.4z M342.7,252.8v-2h-2.3v-3l-2.7,0.9v2.1
	H336v2h1.7v3.5c0,1.1,0.3,2,0.9,2.6c0.6,0.6,1.4,0.9,2.5,0.9c0.6,0,1.1-0.1,1.5-0.2v-2.1c-0.3,0.1-0.6,0.1-0.9,0.1
	c-0.4,0-0.7-0.1-1-0.3c-0.3-0.2-0.4-0.6-0.4-1.1v-3.5H342.7z M332.1,249.1h2.8v-2.5h-2.8V249.1z M334.8,250.8h-2.7v9h2.7V250.8z
	 M330,246.8h-2.7v13h2.7V246.8z M322.4,249.1h2.8v-2.5h-2.8V249.1z M325.1,250.8h-2.7v9h2.7V250.8z M317.7,260c0.7,0,1.3-0.1,2-0.3
	c0.6-0.2,1.1-0.5,1.5-0.8l-0.7-1.9c-0.4,0.3-0.7,0.5-1.2,0.7c-0.4,0.2-0.8,0.2-1.2,0.2c-0.7,0-1.3-0.2-1.7-0.7
	c-0.4-0.4-0.6-1.1-0.6-2c0-0.8,0.2-1.5,0.6-1.9c0.4-0.4,1-0.7,1.7-0.7c0.4,0,0.8,0.1,1.2,0.2c0.4,0.2,0.8,0.4,1.2,0.7l0.7-1.9
	c-0.4-0.3-0.9-0.6-1.5-0.8c-0.6-0.2-1.2-0.3-1.9-0.3c-1,0-1.8,0.2-2.5,0.6c-0.7,0.4-1.3,1-1.7,1.7c-0.4,0.7-0.6,1.5-0.6,2.5
	c0,1.4,0.4,2.6,1.2,3.4C315.1,259.5,316.2,260,317.7,260 M306.6,257.9c-0.7,0-1.2-0.2-1.5-0.7c-0.4-0.4-0.5-1.1-0.5-1.9
	c0-0.8,0.2-1.5,0.5-2c0.4-0.5,0.9-0.7,1.5-0.7c0.7,0,1.2,0.2,1.5,0.7c0.4,0.5,0.5,1.1,0.5,2s-0.2,1.5-0.5,1.9
	C307.8,257.7,307.3,257.9,306.6,257.9 M308.7,250.8v1.3c-0.3-0.5-0.7-0.8-1.2-1.1c-0.5-0.3-1.1-0.4-1.7-0.4c-0.8,0-1.5,0.2-2.1,0.6
	c-0.6,0.4-1.1,1-1.4,1.7c-0.3,0.7-0.5,1.5-0.5,2.5s0.2,1.7,0.5,2.4c0.3,0.7,0.8,1.2,1.4,1.6c0.6,0.4,1.3,0.6,2.1,0.6
	c0.6,0,1.2-0.1,1.7-0.4c0.5-0.3,0.9-0.6,1.2-1.1v1.3h2.6v-9H308.7z M295.1,259.8v-5.3h5.4v-2.2h-5.4v-2.9h5.8v-2.2h-8.5v12.6H295.1z
	 M282,250.6c-0.6,0-1.2,0.1-1.7,0.4c-0.5,0.3-0.9,0.7-1.2,1.2l-0.2-1.4h-2.5c0.1,0.8,0.1,1.6,0.1,2.6v6.4h2.7v-5
	c0-0.6,0.2-1.1,0.5-1.5c0.4-0.4,0.8-0.6,1.4-0.6c0.5,0,0.9,0.1,1.1,0.4c0.2,0.3,0.3,0.7,0.3,1.4v5.3h2.7v-5.4
	C285.1,251.9,284.1,250.6,282,250.6 M271.5,249.1h2.8v-2.5h-2.8V249.1z M274.2,250.8h-2.7v9h2.7V250.8z M264.7,257.9
	c-0.7,0-1.2-0.2-1.5-0.7c-0.4-0.4-0.5-1.1-0.5-1.9c0-0.8,0.2-1.5,0.5-2c0.4-0.5,0.9-0.7,1.5-0.7s1.2,0.2,1.5,0.7
	c0.4,0.5,0.5,1.1,0.5,2s-0.2,1.5-0.5,1.9C265.9,257.7,265.4,257.9,264.7,257.9 M266.8,250.8v1.3c-0.3-0.5-0.7-0.8-1.2-1.1
	c-0.5-0.3-1.1-0.4-1.7-0.4c-0.8,0-1.5,0.2-2.1,0.6c-0.6,0.4-1.1,1-1.4,1.7c-0.3,0.7-0.5,1.5-0.5,2.5s0.2,1.7,0.5,2.4
	c0.3,0.7,0.8,1.2,1.4,1.6c0.6,0.4,1.3,0.6,2.1,0.6c0.6,0,1.2-0.1,1.7-0.4c0.5-0.3,0.9-0.6,1.2-1.1v1.3h2.6v-9H266.8z M255.1,250.6
	c-0.6,0-1.2,0.1-1.6,0.4c-0.5,0.2-0.9,0.6-1.2,1.1v-5.3h-2.7v13h2.7v-5c0-0.6,0.2-1.1,0.5-1.5c0.4-0.4,0.8-0.6,1.4-0.6
	c0.5,0,0.9,0.1,1.1,0.4c0.2,0.3,0.3,0.7,0.3,1.4v5.3h2.7v-5.4C258.3,251.9,257.2,250.6,255.1,250.6 M243.5,260
	c0.8,0,1.6-0.1,2.4-0.4c0.8-0.3,1.4-0.6,1.9-1.1l-0.9-2c-0.6,0.4-1.1,0.7-1.7,0.9c-0.5,0.2-1.1,0.3-1.7,0.3c-1.1,0-2-0.4-2.6-1.1
	c-0.6-0.7-0.9-1.8-0.9-3.2c0-1.4,0.3-2.4,0.9-3.2c0.6-0.7,1.5-1.1,2.6-1.1c0.6,0,1.2,0.1,1.7,0.3c0.5,0.2,1.1,0.5,1.7,0.9l0.9-2
	c-0.5-0.5-1.1-0.8-1.9-1.1c-0.8-0.3-1.6-0.4-2.4-0.4c-1.3,0-2.4,0.3-3.3,0.8c-1,0.5-1.7,1.3-2.2,2.3c-0.5,1-0.8,2.1-0.8,3.4
	c0,1.3,0.3,2.4,0.8,3.4c0.5,1,1.2,1.7,2.2,2.3C241.1,259.7,242.3,260,243.5,260 M228.9,250.8l-2.4,5.8l-2.3-5.8h-2.8l3.7,8.5
	l-0.3,0.6c-0.2,0.5-0.6,0.9-1,1.2c-0.4,0.3-1,0.5-1.9,0.7l0.6,2.1c1.1-0.2,2.1-0.5,2.8-1c0.8-0.5,1.4-1.4,1.9-2.5l4.1-9.5H228.9z
	 M220.6,246.8h-2.7v13h2.7V246.8z M211.4,257.9c-0.7,0-1.2-0.2-1.5-0.7c-0.4-0.4-0.5-1.1-0.5-1.9s0.2-1.5,0.5-2
	c0.4-0.5,0.9-0.7,1.5-0.7c0.6,0,1.2,0.2,1.5,0.7c0.4,0.5,0.5,1.1,0.5,2c0,0.8-0.2,1.5-0.5,1.9C212.6,257.7,212.1,257.9,211.4,257.9
	 M212.2,250.6c-0.7,0-1.3,0.2-1.8,0.5c-0.5,0.3-0.9,0.7-1.1,1.3l-0.2-1.5h-2.5c0.1,0.8,0.1,1.6,0.1,2.6v10.2h2.7v-5.2
	c0.3,0.5,0.6,0.8,1.1,1.1c0.5,0.3,1.1,0.4,1.7,0.4c0.8,0,1.5-0.2,2.1-0.6c0.6-0.4,1.1-0.9,1.4-1.6c0.3-0.7,0.5-1.5,0.5-2.4
	s-0.2-1.7-0.5-2.5c-0.3-0.7-0.8-1.3-1.4-1.7C213.7,250.8,213,250.6,212.2,250.6 M200.3,257.9c-0.7,0-1.2-0.2-1.5-0.7
	c-0.4-0.4-0.5-1.1-0.5-1.9s0.2-1.5,0.5-2c0.4-0.5,0.9-0.7,1.5-0.7c0.6,0,1.2,0.2,1.5,0.7c0.4,0.5,0.5,1.1,0.5,2
	c0,0.8-0.2,1.5-0.5,1.9C201.4,257.7,200.9,257.9,200.3,257.9 M201,250.6c-0.7,0-1.3,0.2-1.8,0.5c-0.5,0.3-0.9,0.7-1.1,1.3l-0.2-1.5
	h-2.5c0.1,0.8,0.1,1.6,0.1,2.6v10.2h2.7v-5.2c0.3,0.5,0.6,0.8,1.1,1.1c0.5,0.3,1.1,0.4,1.7,0.4c0.8,0,1.5-0.2,2.1-0.6
	c0.6-0.4,1.1-0.9,1.4-1.6c0.3-0.7,0.5-1.5,0.5-2.4s-0.2-1.7-0.5-2.5c-0.3-0.7-0.8-1.3-1.4-1.7C202.5,250.8,201.8,250.6,201,250.6
	 M190.7,250.8v5c0,0.6-0.2,1.1-0.5,1.5c-0.3,0.4-0.8,0.6-1.3,0.6c-0.9,0-1.4-0.5-1.4-1.6v-5.4h-2.7v5.3c0,1.3,0.3,2.2,0.8,2.8
	c0.6,0.6,1.4,0.9,2.5,0.9c0.6,0,1.1-0.1,1.6-0.4c0.5-0.2,0.8-0.6,1.1-1.1v1.3h2.6v-9H190.7z M177.8,260c1.6,0,2.9-0.3,3.8-1
	c0.9-0.7,1.4-1.6,1.4-2.8c0-1-0.4-1.8-1.1-2.3c-0.7-0.6-1.9-1-3.5-1.4c-0.7-0.1-1.2-0.3-1.6-0.4c-0.4-0.1-0.6-0.3-0.8-0.5
	c-0.2-0.2-0.2-0.4-0.2-0.7c0-0.5,0.2-0.9,0.6-1.2c0.4-0.3,1-0.4,1.7-0.4c1.3,0,2.6,0.4,3.7,1.3l0.9-2c-0.5-0.4-1.2-0.8-2-1.1
	c-0.8-0.3-1.7-0.4-2.6-0.4c-1,0-1.9,0.2-2.6,0.5c-0.8,0.3-1.3,0.8-1.8,1.4c-0.4,0.6-0.6,1.3-0.6,2c0,0.7,0.1,1.3,0.5,1.7
	c0.3,0.5,0.8,0.9,1.4,1.2c0.7,0.3,1.5,0.6,2.6,0.8c1,0.2,1.7,0.4,2.1,0.7c0.4,0.2,0.6,0.5,0.6,0.9c0,0.5-0.2,0.8-0.6,1.1
	c-0.4,0.3-1,0.4-1.8,0.4c-1.5,0-2.9-0.4-4.1-1.3l-0.9,2c0.6,0.5,1.3,0.8,2.2,1.1C175.9,259.8,176.8,260,177.8,260"/>
<path class="st0" d="M347.6,291.9c-0.7,0-1.2-0.2-1.6-0.7c-0.4-0.4-0.6-1-0.6-1.8s0.2-1.3,0.6-1.8c0.4-0.4,0.9-0.6,1.6-0.6
	c0.7,0,1.2,0.2,1.5,0.6c0.4,0.4,0.5,1,0.5,1.8c0,0.8-0.2,1.4-0.6,1.8C348.8,291.7,348.3,291.9,347.6,291.9 M349.7,285.2v1.3
	c-0.3-0.5-0.7-0.8-1.2-1.1s-1.1-0.4-1.7-0.4c-0.8,0-1.5,0.2-2.1,0.6c-0.6,0.4-1.1,0.9-1.4,1.6c-0.3,0.7-0.5,1.5-0.5,2.3
	s0.2,1.7,0.5,2.3c0.3,0.7,0.8,1.2,1.4,1.6c0.6,0.4,1.3,0.6,2.1,0.6c0.6,0,1.2-0.1,1.7-0.4c0.5-0.3,0.9-0.7,1.2-1.1v1.6
	c0,0.7-0.2,1.3-0.6,1.6c-0.4,0.4-1,0.5-1.7,0.5c-1.1,0-2.1-0.3-3.2-0.8l-0.4,2c1.1,0.6,2.3,0.8,3.7,0.8c1.6,0,2.8-0.4,3.6-1.1
	c0.8-0.7,1.2-1.8,1.2-3.3v-8.6H349.7z M338,284.9c-0.6,0-1.2,0.1-1.7,0.4c-0.5,0.3-0.9,0.7-1.2,1.2l-0.2-1.4h-2.5
	c0.1,0.8,0.1,1.6,0.1,2.6v6.4h2.7v-5c0-0.6,0.2-1.1,0.5-1.5c0.4-0.4,0.8-0.6,1.4-0.6c0.5,0,0.9,0.1,1.1,0.4c0.2,0.3,0.3,0.7,0.3,1.4
	v5.3h2.7v-5.4C341.2,286.2,340.1,284.9,338,284.9 M327.5,283.5h2.8V281h-2.8V283.5z M330.3,285.2h-2.7v9h2.7V285.2z M322.1,294.3
	c1.2,0,2.1-0.2,2.8-0.7c0.7-0.5,1-1.2,1-2c0-0.7-0.2-1.3-0.6-1.7c-0.4-0.4-1.1-0.7-2-1l-1.5-0.3c-0.4-0.1-0.6-0.2-0.8-0.3
	c-0.1-0.1-0.2-0.3-0.2-0.5c0-0.3,0.1-0.5,0.4-0.6c0.2-0.2,0.6-0.2,1-0.2c0.4,0,0.9,0.1,1.4,0.2c0.5,0.2,0.9,0.4,1.4,0.7l0.7-1.8
	c-0.5-0.4-1-0.6-1.6-0.8c-0.6-0.2-1.2-0.3-1.9-0.3c-0.8,0-1.4,0.1-2,0.4c-0.6,0.2-1,0.6-1.4,1c-0.3,0.4-0.5,0.9-0.5,1.5
	c0,0.7,0.2,1.2,0.6,1.6c0.4,0.4,1,0.7,1.9,0.9l1.5,0.3c0.4,0.1,0.8,0.2,0.9,0.3s0.3,0.3,0.3,0.5c0,0.3-0.1,0.5-0.4,0.6
	s-0.6,0.2-1.1,0.2c-0.6,0-1.2-0.1-1.8-0.3c-0.6-0.2-1.1-0.4-1.6-0.8l-0.7,1.9C319.1,293.9,320.4,294.3,322.1,294.3 M313.2,294.3
	c1.2,0,2.1-0.2,2.8-0.7c0.7-0.5,1-1.2,1-2c0-0.7-0.2-1.3-0.6-1.7c-0.4-0.4-1.1-0.7-2-1l-1.5-0.3c-0.4-0.1-0.6-0.2-0.8-0.3
	c-0.1-0.1-0.2-0.3-0.2-0.5c0-0.3,0.1-0.5,0.4-0.6c0.2-0.2,0.6-0.2,1-0.2c0.4,0,0.9,0.1,1.4,0.2c0.5,0.2,0.9,0.4,1.4,0.7l0.7-1.8
	c-0.5-0.4-1-0.6-1.6-0.8c-0.6-0.2-1.2-0.3-1.9-0.3c-0.8,0-1.4,0.1-2,0.4c-0.6,0.2-1,0.6-1.4,1c-0.3,0.4-0.5,0.9-0.5,1.5
	c0,0.7,0.2,1.2,0.6,1.6c0.4,0.4,1,0.7,1.9,0.9l1.5,0.3c0.4,0.1,0.8,0.2,0.9,0.3c0.2,0.1,0.3,0.3,0.3,0.5c0,0.3-0.1,0.5-0.4,0.6
	c-0.2,0.1-0.6,0.2-1.1,0.2c-0.6,0-1.2-0.1-1.8-0.3c-0.6-0.2-1.1-0.4-1.6-0.8l-0.7,1.9C310.2,293.9,311.5,294.3,313.2,294.3
	 M304.1,286.8c1,0,1.6,0.6,1.7,1.7h-3.6c0.1-0.6,0.3-1,0.6-1.3C303.2,287,303.6,286.8,304.1,286.8 M308.1,289.5
	c0-1.4-0.4-2.5-1.1-3.3c-0.7-0.8-1.7-1.2-3-1.2c-0.8,0-1.6,0.2-2.3,0.6c-0.7,0.4-1.2,1-1.6,1.7c-0.4,0.7-0.6,1.5-0.6,2.4
	c0,1.4,0.4,2.6,1.3,3.4c0.9,0.8,2,1.2,3.6,1.2c0.6,0,1.3-0.1,1.9-0.3c0.6-0.2,1.2-0.5,1.6-0.8l-0.7-1.8c-0.4,0.3-0.8,0.5-1.3,0.7
	c-0.5,0.2-0.9,0.2-1.4,0.2c-0.8,0-1.3-0.2-1.7-0.6c-0.4-0.4-0.6-1-0.7-1.8h5.9V289.5z M295.3,294.3c0.7,0,1.3-0.1,2-0.3
	c0.6-0.2,1.1-0.5,1.5-0.8l-0.7-1.9c-0.4,0.3-0.7,0.5-1.2,0.7c-0.4,0.2-0.8,0.2-1.2,0.2c-0.7,0-1.3-0.2-1.7-0.7
	c-0.4-0.4-0.6-1.1-0.6-2c0-0.8,0.2-1.5,0.6-1.9c0.4-0.4,1-0.7,1.7-0.7c0.4,0,0.8,0.1,1.2,0.2c0.4,0.2,0.8,0.4,1.2,0.7l0.7-1.9
	c-0.4-0.3-0.9-0.6-1.5-0.8c-0.6-0.2-1.2-0.3-1.9-0.3c-1,0-1.8,0.2-2.5,0.6c-0.7,0.4-1.3,1-1.7,1.7c-0.4,0.7-0.6,1.5-0.6,2.5
	c0,1.4,0.4,2.6,1.2,3.4C292.7,293.9,293.8,294.3,295.3,294.3 M284.6,292.3c-1.4,0-2.1-0.9-2.1-2.6c0-0.9,0.2-1.5,0.5-2
	s0.9-0.7,1.5-0.7c0.7,0,1.2,0.2,1.5,0.7s0.5,1.1,0.5,2c0,0.9-0.2,1.5-0.5,2S285.3,292.3,284.6,292.3 M284.6,294.3
	c0.9,0,1.8-0.2,2.5-0.6c0.7-0.4,1.3-0.9,1.6-1.6c0.4-0.7,0.6-1.5,0.6-2.5s-0.2-1.8-0.6-2.5c-0.4-0.7-0.9-1.3-1.6-1.6
	c-0.7-0.4-1.5-0.6-2.5-0.6c-1,0-1.8,0.2-2.5,0.6c-0.7,0.4-1.3,0.9-1.6,1.6s-0.6,1.5-0.6,2.5s0.2,1.8,0.6,2.5
	c0.4,0.7,0.9,1.3,1.6,1.6C282.8,294.1,283.7,294.3,284.6,294.3 M278.5,285c-0.6,0-1.1,0.2-1.6,0.5c-0.5,0.3-0.8,0.7-1.1,1.3
	l-0.2-1.5h-2.5c0.1,0.8,0.1,1.6,0.1,2.6v6.4h2.7v-4.7c0-0.7,0.2-1.2,0.6-1.6c0.4-0.4,0.9-0.6,1.6-0.6c0.4,0,0.9,0.1,1.3,0.3l0-2.4
	C279.2,285,278.9,285,278.5,285 M264.4,286.9v-3.3h2.6c1.4,0,2.2,0.5,2.2,1.6c0,1.1-0.7,1.6-2.2,1.6H264.4z M261.7,294.1h2.8v-5.1h3
	c1.4,0,2.5-0.3,3.2-1c0.8-0.7,1.2-1.6,1.2-2.7c0-1.2-0.4-2.1-1.2-2.7c-0.8-0.7-1.9-1-3.2-1h-5.7V294.1z M254.5,285
	c-0.6,0-1.1,0.2-1.6,0.5c-0.5,0.3-0.8,0.7-1.1,1.3l-0.2-1.5h-2.5c0.1,0.8,0.1,1.6,0.1,2.6v6.4h2.7v-4.7c0-0.7,0.2-1.2,0.6-1.6
	c0.4-0.4,0.9-0.6,1.6-0.6c0.4,0,0.9,0.1,1.3,0.3l0-2.4C255.2,285,254.9,285,254.5,285 M243.6,286.8c1,0,1.6,0.6,1.7,1.7h-3.6
	c0.1-0.6,0.3-1,0.6-1.3C242.7,287,243.1,286.8,243.6,286.8 M247.6,289.5c0-1.4-0.4-2.5-1.1-3.3c-0.7-0.8-1.7-1.2-3-1.2
	c-0.8,0-1.6,0.2-2.3,0.6c-0.7,0.4-1.2,1-1.6,1.7c-0.4,0.7-0.6,1.5-0.6,2.4c0,1.4,0.4,2.6,1.3,3.4c0.9,0.8,2,1.2,3.6,1.2
	c0.6,0,1.3-0.1,1.9-0.3c0.6-0.2,1.2-0.5,1.6-0.8l-0.7-1.8c-0.4,0.3-0.8,0.5-1.3,0.7c-0.5,0.2-0.9,0.2-1.4,0.2
	c-0.8,0-1.3-0.2-1.7-0.6s-0.6-1-0.7-1.8h5.9V289.5z M232.7,292.3c-0.7,0-1.2-0.2-1.5-0.7c-0.4-0.5-0.5-1.1-0.5-2
	c0-0.8,0.2-1.5,0.5-1.9c0.4-0.4,0.9-0.7,1.5-0.7c0.6,0,1.2,0.2,1.5,0.7c0.4,0.5,0.5,1.1,0.5,1.9c0,0.8-0.2,1.5-0.5,2
	C233.9,292,233.3,292.3,232.7,292.3 M234.7,281.1v5.3c-0.3-0.4-0.7-0.8-1.2-1.1c-0.5-0.3-1-0.4-1.6-0.4c-0.8,0-1.5,0.2-2.1,0.6
	c-0.6,0.4-1.1,0.9-1.4,1.6c-0.3,0.7-0.5,1.5-0.5,2.4c0,0.9,0.2,1.7,0.5,2.5c0.3,0.7,0.8,1.3,1.4,1.7c0.6,0.4,1.3,0.6,2.1,0.6
	c0.6,0,1.2-0.1,1.7-0.4c0.5-0.3,0.9-0.6,1.2-1.1v1.3h2.6v-13H234.7z M226.5,285c-0.6,0-1.1,0.2-1.6,0.5c-0.5,0.3-0.8,0.7-1.1,1.3
	l-0.2-1.5h-2.5c0.1,0.8,0.1,1.6,0.1,2.6v6.4h2.7v-4.7c0-0.7,0.2-1.2,0.6-1.6c0.4-0.4,0.9-0.6,1.6-0.6c0.4,0,0.9,0.1,1.3,0.3l0-2.4
	C227.2,285,226.9,285,226.5,285 M213.2,292.1c-1.1,0-1.9-0.4-2.5-1.1c-0.6-0.7-0.9-1.8-0.9-3.2c0-1.4,0.3-2.5,0.9-3.2
	c0.6-0.7,1.4-1.1,2.5-1.1c1.1,0,1.9,0.4,2.5,1.1c0.6,0.7,0.9,1.8,0.9,3.2c0,1.4-0.3,2.5-0.9,3.2
	C215.1,291.8,214.3,292.1,213.2,292.1 M213.2,294.3c1.3,0,2.3-0.3,3.3-0.8c0.9-0.5,1.6-1.3,2.1-2.3c0.5-1,0.7-2.1,0.7-3.4
	c0-1.3-0.2-2.4-0.7-3.4c-0.5-1-1.2-1.7-2.1-2.2c-0.9-0.5-2-0.8-3.3-0.8c-1.3,0-2.3,0.3-3.3,0.8c-0.9,0.5-1.6,1.3-2.1,2.2
	c-0.5,1-0.8,2.1-0.8,3.4c0,1.3,0.3,2.5,0.8,3.4c0.5,1,1.2,1.7,2.1,2.3C210.9,294,211.9,294.3,213.2,294.3"/>
<path class="st0" d="M309.4,181.9c1.2,0,2.1-0.2,2.8-0.7c0.7-0.5,1-1.2,1-2c0-0.7-0.2-1.3-0.6-1.7c-0.4-0.4-1.1-0.7-2-1l-1.5-0.3
	c-0.4-0.1-0.6-0.2-0.8-0.3c-0.1-0.1-0.2-0.3-0.2-0.5c0-0.3,0.1-0.5,0.4-0.6c0.2-0.2,0.6-0.2,1-0.2c0.4,0,0.9,0.1,1.4,0.2
	c0.5,0.2,0.9,0.4,1.4,0.7l0.7-1.8c-0.5-0.4-1-0.6-1.6-0.8c-0.6-0.2-1.2-0.3-1.9-0.3c-0.8,0-1.4,0.1-2,0.4s-1,0.6-1.4,1
	c-0.3,0.4-0.5,0.9-0.5,1.5c0,0.7,0.2,1.2,0.6,1.6c0.4,0.4,1,0.7,1.9,0.9l1.5,0.3c0.4,0.1,0.8,0.2,0.9,0.3c0.2,0.1,0.3,0.3,0.3,0.5
	c0,0.3-0.1,0.5-0.4,0.6c-0.2,0.1-0.6,0.2-1.1,0.2c-0.6,0-1.2-0.1-1.8-0.3c-0.6-0.2-1.1-0.4-1.6-0.8l-0.7,1.9
	C306.3,181.5,307.7,181.9,309.4,181.9 M304.6,174.8v-2h-2.3v-3l-2.7,0.9v2.1h-1.7v2h1.7v3.5c0,1.1,0.3,2,0.9,2.6
	c0.6,0.6,1.4,0.9,2.5,0.9c0.6,0,1.1-0.1,1.5-0.2v-2.1c-0.3,0.1-0.6,0.1-0.9,0.1c-0.4,0-0.7-0.1-1-0.3c-0.3-0.2-0.4-0.6-0.4-1.1v-3.5
	H304.6z M293.6,172.5c-0.6,0-1.2,0.1-1.6,0.4s-0.9,0.6-1.2,1.1v-5.3h-2.7v13h2.7v-5c0-0.6,0.2-1.1,0.5-1.5c0.4-0.4,0.8-0.6,1.4-0.6
	c0.5,0,0.9,0.1,1.1,0.4c0.2,0.3,0.3,0.7,0.3,1.4v5.3h2.7v-5.4C296.8,173.8,295.7,172.5,293.6,172.5 M281.2,179.5
	c-0.7,0-1.2-0.2-1.6-0.7c-0.4-0.4-0.6-1-0.6-1.8c0-0.8,0.2-1.3,0.6-1.8c0.4-0.4,0.9-0.6,1.6-0.6c0.7,0,1.2,0.2,1.5,0.6
	c0.4,0.4,0.5,1,0.5,1.8c0,0.8-0.2,1.4-0.6,1.8C282.3,179.3,281.8,179.5,281.2,179.5 M283.3,172.8v1.3c-0.3-0.5-0.7-0.8-1.2-1.1
	c-0.5-0.3-1.1-0.4-1.7-0.4c-0.8,0-1.5,0.2-2.1,0.6c-0.6,0.4-1.1,0.9-1.4,1.6c-0.3,0.7-0.5,1.5-0.5,2.3c0,0.9,0.2,1.7,0.5,2.3
	c0.3,0.7,0.8,1.2,1.4,1.6c0.6,0.4,1.3,0.6,2.1,0.6c0.6,0,1.2-0.1,1.7-0.4c0.5-0.3,0.9-0.7,1.2-1.1v1.6c0,0.7-0.2,1.3-0.6,1.6
	c-0.4,0.4-1,0.5-1.7,0.5c-1.1,0-2.1-0.3-3.2-0.8l-0.4,2c1,0.6,2.3,0.8,3.7,0.8c1.6,0,2.8-0.4,3.6-1.1c0.8-0.7,1.2-1.8,1.2-3.3v-8.6
	H283.3z M271.9,171.1h2.8v-2.5h-2.8V171.1z M274.7,172.8H272v9h2.7V172.8z M266.5,181.9c1.2,0,2.1-0.2,2.8-0.7c0.7-0.5,1-1.2,1-2
	c0-0.7-0.2-1.3-0.6-1.7c-0.4-0.4-1.1-0.7-2-1l-1.5-0.3c-0.4-0.1-0.6-0.2-0.8-0.3c-0.1-0.1-0.2-0.3-0.2-0.5c0-0.3,0.1-0.5,0.4-0.6
	c0.2-0.2,0.6-0.2,1-0.2c0.4,0,0.9,0.1,1.4,0.2c0.5,0.2,0.9,0.4,1.4,0.7l0.7-1.8c-0.5-0.4-1-0.6-1.6-0.8c-0.6-0.2-1.2-0.3-1.9-0.3
	c-0.8,0-1.4,0.1-2,0.4c-0.6,0.2-1,0.6-1.4,1c-0.3,0.4-0.5,0.9-0.5,1.5c0,0.7,0.2,1.2,0.6,1.6c0.4,0.4,1,0.7,1.9,0.9l1.5,0.3
	c0.4,0.1,0.8,0.2,0.9,0.3c0.2,0.1,0.3,0.3,0.3,0.5c0,0.3-0.1,0.5-0.4,0.6c-0.2,0.1-0.6,0.2-1.1,0.2c-0.6,0-1.2-0.1-1.8-0.3
	c-0.6-0.2-1.1-0.4-1.6-0.8l-0.7,1.9C263.5,181.5,264.8,181.9,266.5,181.9 M257.8,172.5c-0.6,0-1.2,0.1-1.7,0.4
	c-0.5,0.3-0.9,0.7-1.2,1.2l-0.2-1.4h-2.5c0.1,0.8,0.1,1.6,0.1,2.6v6.4h2.7v-5c0-0.6,0.2-1.1,0.5-1.5c0.4-0.4,0.8-0.6,1.4-0.6
	c0.5,0,0.9,0.1,1.1,0.4c0.2,0.3,0.3,0.7,0.3,1.4v5.3h2.7v-5.4C261,173.8,259.9,172.5,257.8,172.5 M249.9,169.1h-2.8v12.6h2.8V169.1z
	"/>
<path class="st0" d="M312.6,326.2c-0.7,0-1.2-0.2-1.6-0.7c-0.4-0.4-0.6-1-0.6-1.8c0-0.8,0.2-1.3,0.6-1.8c0.4-0.4,0.9-0.6,1.6-0.6
	c0.7,0,1.2,0.2,1.5,0.6c0.4,0.4,0.5,1,0.5,1.8c0,0.8-0.2,1.4-0.6,1.8C313.7,325.9,313.2,326.2,312.6,326.2 M314.7,319.5v1.3
	c-0.3-0.5-0.7-0.8-1.2-1.1c-0.5-0.3-1.1-0.4-1.7-0.4c-0.8,0-1.5,0.2-2.1,0.6c-0.6,0.4-1.1,0.9-1.4,1.6c-0.3,0.7-0.5,1.5-0.5,2.3
	c0,0.9,0.2,1.7,0.5,2.3c0.3,0.7,0.8,1.2,1.4,1.6c0.6,0.4,1.3,0.6,2.1,0.6c0.6,0,1.2-0.1,1.7-0.4c0.5-0.3,0.9-0.7,1.2-1.1v1.6
	c0,0.7-0.2,1.3-0.6,1.6s-1,0.5-1.7,0.5c-1.1,0-2.1-0.3-3.2-0.8l-0.4,2c1.1,0.6,2.3,0.8,3.7,0.8c1.6,0,2.8-0.4,3.6-1.1
	c0.8-0.7,1.2-1.8,1.2-3.3v-8.6H314.7z M302.9,319.2c-0.6,0-1.2,0.1-1.7,0.4c-0.5,0.3-0.9,0.7-1.2,1.2l-0.2-1.4h-2.5
	c0.1,0.8,0.1,1.6,0.1,2.6v6.4h2.7v-5c0-0.6,0.2-1.1,0.5-1.5c0.4-0.4,0.8-0.6,1.4-0.6c0.5,0,0.9,0.1,1.1,0.4c0.2,0.3,0.3,0.7,0.3,1.4
	v5.3h2.7V323C306.1,320.5,305.1,319.2,302.9,319.2 M292.5,317.8h2.9v-2.5h-2.9V317.8z M295.2,319.5h-2.7v9h2.7V319.5z M287.8,328.6
	c0.7,0,1.3-0.1,2-0.3c0.6-0.2,1.1-0.5,1.5-0.8l-0.7-1.9c-0.4,0.3-0.7,0.5-1.2,0.7c-0.4,0.2-0.8,0.2-1.2,0.2c-0.7,0-1.3-0.2-1.7-0.7
	c-0.4-0.4-0.6-1.1-0.6-2c0-0.8,0.2-1.5,0.6-1.9c0.4-0.4,1-0.7,1.7-0.7c0.4,0,0.8,0.1,1.2,0.2c0.4,0.2,0.8,0.4,1.2,0.7l0.7-1.9
	c-0.4-0.3-0.9-0.6-1.5-0.8c-0.6-0.2-1.2-0.3-1.9-0.3c-1,0-1.8,0.2-2.5,0.6c-0.7,0.4-1.3,1-1.7,1.7c-0.4,0.7-0.6,1.5-0.6,2.5
	c0,1.4,0.4,2.6,1.2,3.4C285.2,328.2,286.3,328.6,287.8,328.6 M278.6,317.8h2.8v-2.5h-2.8V317.8z M281.4,319.5h-2.7v9h2.7V319.5z
	 M272.3,326.5c-1.4,0-2.1-0.9-2.1-2.6c0-0.9,0.2-1.5,0.5-2c0.4-0.4,0.9-0.7,1.5-0.7c0.7,0,1.2,0.2,1.5,0.7c0.3,0.4,0.5,1.1,0.5,2
	c0,0.9-0.2,1.5-0.5,2C273.4,326.3,272.9,326.5,272.3,326.5 M272.3,328.6c0.9,0,1.8-0.2,2.5-0.6c0.7-0.4,1.3-0.9,1.6-1.6
	c0.4-0.7,0.6-1.5,0.6-2.5c0-0.9-0.2-1.8-0.6-2.5c-0.4-0.7-0.9-1.3-1.6-1.6c-0.7-0.4-1.5-0.6-2.5-0.6c-1,0-1.8,0.2-2.5,0.6
	s-1.3,0.9-1.6,1.6c-0.4,0.7-0.6,1.5-0.6,2.5c0,0.9,0.2,1.8,0.6,2.5c0.4,0.7,0.9,1.3,1.6,1.6C270.5,328.4,271.3,328.6,272.3,328.6
	 M262.3,325.3l-2.3-5.8h-2.8l3.9,9h2.3l3.9-9h-2.6L262.3,325.3z M253.1,319.2c-0.6,0-1.2,0.1-1.7,0.4c-0.5,0.3-0.9,0.7-1.2,1.2
	l-0.2-1.4h-2.5c0.1,0.8,0.1,1.6,0.1,2.6v6.4h2.7v-5c0-0.6,0.2-1.1,0.5-1.5c0.4-0.4,0.8-0.6,1.4-0.6c0.5,0,0.9,0.1,1.1,0.4
	c0.2,0.3,0.3,0.7,0.3,1.4v5.3h2.7V323C256.3,320.5,255.2,319.2,253.1,319.2 M245.2,315.8h-2.8v12.6h2.8V315.8z"/>
<path class="st1" d="M504.4,53.4C415-8.7,285.7-7.8,201.5,62.5c-68.2,56.9-100.8,146.8-69.4,231.1c18.2,48.9,66.4,84.6,98.3,93
	c41.2,10.9,85,8.9,124-7.8c26.3-11.3,50.8-29,66.6-53.2c27.8-42.7,31.2-101.1,13.8-148.3c-13.1-35.5-38.1-67.3-69.7-88.9
	C328,63.3,286.5,55.5,242.8,53c-64.6-3.7-129.6,26.7-173.3,73.6c-33.2,35.6-54.9,81.7-61.3,130"/>
<path class="st2" d="M497.8,58l-7.4,1.7c-4,0.9-6.6,5-5.6,9c1,4,5,6.6,9,5.6l33-7.7l-10.1-32.4c-0.2-0.5-0.4-1-0.7-1.5
	c-1.7-3-5.3-4.5-8.8-3.4c-4,1.2-6.2,5.5-4.9,9.4l1.7,5.4"/>
<path class="st2" d="M509,46.6C464,15.3,407.8-1.2,350.8,0.1C292.9,1.4,238,21.3,196.2,56.2c-35.6,29.7-61.4,67.4-74.6,109.1
	c-13.9,43.7-12.9,89,2.7,131.2c11.1,29.9,31.3,51.8,46.3,65c18.5,16.2,39.5,28.3,57.6,33.1c17.7,4.7,35.8,7,53.6,7
	c26.3,0,52.2-5.1,75.7-15.2c21.3-9.1,50.7-26.3,70.2-56.3c14.1-21.7,22.8-48,25.1-76.3c2.3-27.1-1.4-54.5-10.5-79.3
	c-7.8-21.3-19.7-41.2-34.6-58.6c10,13.9,18.1,29.1,24,45.1c9.1,24.8,12.7,52.2,10.5,79.3c-2.4,28.2-11,54.6-25.1,76.3
	c-1.2,1.8-2.3,3.5-3.6,5.2c-17.3,26.2-43.5,41.4-62.5,49.6c-36.1,15.5-78.2,18.1-118.6,7.4c-15.5-4.1-34.6-15.2-51-29.6
	c-13.6-11.9-31.8-31.7-41.7-58.4c-14.4-38.7-15.3-80.4-2.5-120.5c12.3-38.7,36.3-73.8,69.5-101.4c38.9-32.5,90.2-51,144.5-52.3
	c53.5-1.2,106.2,14.3,148.5,43.6c3.7,2.6,8.8,1.7,11.4-2.1C513.7,54.3,512.8,49.2,509,46.6"/>
</svg>
