<svg id="Layer_1" data-name="Layer 1" xmlns="http://www.w3.org/2000/svg" xmlns:xlink="http://www.w3.org/1999/xlink" viewBox="0 0 819.1 624.36"><defs><style>.cls-1,.cls-3{fill:none;}.cls-2{clip-path:url(#clip-path);}.cls-3{stroke:#f59c26;stroke-linecap:round;stroke-miterlimit:10;stroke-width:25.51px;}.cls-4{fill:#ff6900;}</style><clipPath id="clip-path"><rect class="cls-1" width="819.1" height="624.36"/></clipPath></defs><title>Artboard 1</title><g class="cls-2"><path class="cls-3" d="M784.07,83C645.22-13.59,444.18-12.13,313.21,97.11c-106,88.41-156.72,228.16-107.94,359.29,28.27,76,103.26,131.49,152.79,144.62,64.12,17,132.2,13.9,192.71-12.06,40.92-17.56,79-45.07,103.53-82.77,43.17-66.41,48.49-157.18,21.52-230.48C655.5,220.5,616.55,171,567.4,137.53,510,98.37,445.39,86.28,377.45,82.39,277,76.63,176,124,108.06,196.78a369.3,369.3,0,0,0-95.3,202.08"/><path class="cls-4" d="M773.89,90.19l-11.48,2.7a11.69,11.69,0,0,0,5.34,22.76L819.1,103.6,803.35,53.26a12.09,12.09,0,0,0-1-2.35A11.69,11.69,0,0,0,781,60.24l2.62,8.37"/><path class="cls-4" d="M791.35,72.51C721.28,23.77,634-1.93,545.39.11,455.31,2.2,370,33.17,305,87.32c-55.28,46.1-95.39,104.73-116,169.55-21.59,67.9-20.11,138.43,4.27,204,17.27,46.41,48.66,80.55,72,101,28.75,25.26,61.38,44,89.52,51.49a325.87,325.87,0,0,0,83.37,10.94c41,0,81.1-7.93,117.64-23.61,33.09-14.2,78.89-40.91,109.2-87.54,21.9-33.69,35.41-74.68,39.08-118.55a289.53,289.53,0,0,0-16.29-123.28A298.69,298.69,0,0,0,634,180.21a295.42,295.42,0,0,1,37.31,70.1,289.53,289.53,0,0,1,16.29,123.28c-3.67,43.87-17.18,84.86-39.08,118.55q-2.68,4.13-5.52,8c-26.84,40.68-67.63,64.35-97.24,77.05-56.05,24.06-121.54,28.12-184.41,11.46-24.1-6.39-53.71-23.58-79.22-46C261,524.17,232.64,493.38,217.22,452,194.85,391.8,193.51,327,213.35,264.6c19.14-60.18,56.49-114.71,108-157.69C381.88,56.44,461.65,27.58,546,25.62c83.16-1.92,165.14,22.16,230.81,67.83a12.75,12.75,0,1,0,14.56-20.94"/></g></svg>