<?xml version="1.0" encoding="utf-8"?>
<!-- Generator: Adobe Illustrator 22.1.0, SVG Export Plug-In . SVG Version: 6.00 Build 0)  -->
<svg version="1.1" id="Layer_1" xmlns="http://www.w3.org/2000/svg" xmlns:xlink="http://www.w3.org/1999/xlink" x="0px" y="0px"
	 viewBox="0 0 809.3 118.1" enable-background="new 0 0 809.3 118.1" xml:space="preserve">
<g class="pencil-shape">
	<path fill="#FF6900" d="M804.5,1.7c-2.3-2.3-6.1-2.3-8.4,0c-2.3,2.3-2.3,6.1,0,8.4c0.3,0.3,0.6,0.7,0.8,1.1
		c2.5,2.8,7.9,9.8,1.4,20.1l6.2-6.2C810.9,18.6,810.9,8.2,804.5,1.7"/>
	<path fill="#FF6900" d="M729.9,76.4l4-10.5l51.7-51.7c2.3-2.3,2.3-6.1,0-8.4c-2.3-2.3-6.1-2.3-8.4,0l-52.6,52.6
		c-0.6,0.6-1.1,1.3-1.3,2.1l-9.2,24.1c-0.8,2.2-0.3,4.7,1.3,6.3c1.1,1.1,2.6,1.7,4.2,1.7c0.7,0,1.4-0.1,2.1-0.4l1.1-0.4
		C724.8,87.3,728.2,80.3,729.9,76.4L729.9,76.4z"/>
	<path fill="#F59C28" d="M796.9,11.2c1,1.8,0.7,4-0.8,5.5l-55.7,55.7l-10.5,4c-1.7,4-5.1,11-7,15.4l22.9-8.7
		c0.8-0.3,1.5-0.8,2.1-1.3l50.4-50.4C804.8,21,799.3,13.9,796.9,11.2"/>
</g>
<path class="pencil-path" fill="none" stroke="#FF6900" stroke-width="16" stroke-linecap="round" stroke-linejoin="round" stroke-miterlimit="10" d="
	M8,102.5c41-8,140-24,182-29s154-17,171-9c7,5-16.6,8.6-54,26c-15,7-10.1,17.8,1,19c29,3,120-6,159-14s54-11,65-13s62-14,165,4"/>
</svg>
