<?xml version="1.0" encoding="utf-8"?>
<!-- Generator: Adobe Illustrator 22.1.0, SVG Export Plug-In . SVG Version: 6.00 Build 0)  -->
<svg version="1.1" id="Layer_1" xmlns="http://www.w3.org/2000/svg" xmlns:xlink="http://www.w3.org/1999/xlink" x="0px" y="0px"
	 viewBox="0 0 71.1 126.3" style="enable-background:new 0 0 71.1 126.3;" xml:space="preserve">
<style type="text/css">
	.st0{fill:#FF9E1C;}
	.st1{fill:none;stroke:#FF9E1C;stroke-width:15.591;stroke-linecap:round;stroke-linejoin:round;stroke-miterlimit:10;}
	.st2{fill:#FF6900;}
</style>
<path class="st0" d="M37.3,126.3c10.6,0,10.6-16.5,0-16.5C26.7,109.8,26.7,126.3,37.3,126.3"/>
<path class="st1" d="M7.8,34.1c0,0-0.5-26.3,26.9-26.3S66,30.5,61.9,42C56.2,57.7,45.4,57.3,41,66.7c-3.8,8-4.3,14.9-4.3,29.7"/>
<path class="st2" d="M65.1,13.9C60.7,7.5,51.8,0,34.7,0C24.3,0,15.8,3.2,9.6,9.5C0,19.3,0,32.7,0,34.2C0.1,38.5,3.7,42,8,41.9
	c4.3-0.1,7.7-3.6,7.6-7.9c0-0.1,0-8.4,5.2-13.6c3.1-3.1,7.8-4.7,13.9-4.7c3.3,0,6.2,0.4,8.8,1.2l0,0c0,0,0,0,0,0
	c2.7,0.8,5,2.1,6.9,3.8c3.1,2.2,5.3,4.7,7,7.1c6.6,9.5,7,21.5,4.4,29.7c2.7-3.1,5.4-7.1,7.4-12.8C72.2,36.4,72.1,23.7,65.1,13.9"/>
</svg>
