<?xml version="1.0" encoding="utf-8"?>
<!-- Generator: Adobe Illustrator 22.1.0, SVG Export Plug-In . SVG Version: 6.00 Build 0)  -->
<svg version="1.1" id="Layer_1" xmlns="http://www.w3.org/2000/svg" xmlns:xlink="http://www.w3.org/1999/xlink" x="0px" y="0px"
	 viewBox="0 0 933.6 464.2" style="enable-background:new 0 0 933.6 464.2;" xml:space="preserve">
<style type="text/css">
	.st0{fill:none;stroke:#2FB5AE;stroke-width:28;stroke-linecap:round;stroke-linejoin:round;stroke-miterlimit:10;}
	.st1{clip-path:url(#SVGID_2_);fill:#2FB5AE;}
	.st2{clip-path:url(#SVGID_4_);fill:#2FB5AE;}
	.st3{clip-path:url(#SVGID_6_);fill:#2FB5AE;}
	.st4{fill:none;}
	.st5{fill:#2FB5AE;}
	.st6{clip-path:url(#SVGID_8_);fill:#0097A9;}
	.st7{clip-path:url(#SVGID_10_);fill:#0097A9;}
	.st8{clip-path:url(#SVGID_12_);fill:#0097A9;}
	.st9{fill:#0097A9;}
	.st10{clip-path:url(#SVGID_14_);fill:#0097A9;}
	.st11{clip-path:url(#SVGID_16_);fill:#2FB5AE;}
</style>
<g id="Layer_2_1_">
	<path class="st0 ribbon-path" d="M0,347c0,0,143.5,37.6,222.7,44.7c112,10,240.4-2.9,308-44.7c91.9-56.8,128.7-172,148-198s43.8-46.5,61.9-13.6
		c18.1,32.9,1.9,99.4-33.9,138.9c-46.1,51-133.1,75.7-156,17.3c-9.7-30.3,13.5-55.3,46.6-67.1c12.5-4.5,69.1-22.7,76.7-25.2
		c49.8-15.2,183.3-61,259.6-145"/>
</g>
<g id="Layer_1_1_" class="ribbon-shape">
	<g>
		<g>
			<defs>
				<rect id="SVGID_1_" width="933.6" height="464.2"/>
			</defs>
			<clipPath id="SVGID_2_">
				<use xlink:href="#SVGID_1_"  style="overflow:visible;"/>
			</clipPath>
			<path class="st1" d="M760.6,152.3c-3-20.1-13.3-40.6-34.4-45.5c-14.1-3.2-35.3,0-56.7,33.4c-11.6,18.1-22.1,37.2-32.3,55.6
				c-0.2,0.4-0.4,0.7-0.6,1.1l-20.2,35.8c-13.5,22.9-27.9,44.3-45.9,63c-0.2,0.2-0.5,0.5-0.7,0.7l-21,19
				c-46.7,36.7-113.1,58-197.7,63.2c-91.5,5.7-186.3-8.8-249.7-21.9c-148.9-30.7-291.3-92-429-151.2c-7.2-3.1-15.5,0.2-18.6,7.4
				s0.2,15.5,7.4,18.6c139,59.8,282.7,121.7,434.4,153c55,11.4,133.2,23.7,213.2,23.7c14.7,0,29.4-0.4,44-1.3
				c94.3-5.9,168.1-30.9,219.9-74.4l23.5-22.7c24.4-27,42.6-58.3,59.8-89.3l20.2-36.3c5.5-9.8,11.3-19.4,17.2-28.7
				c4.8-7.5,9.9-13.4,14.6-17.1c3.3-2.5,5.9-3.6,7.9-4l0,0c7.2-2.1,13.7-1.8,19.2-0.5C746.5,136.5,755,143,760.6,152.3z"/>
		</g>
	</g>
	<g>
		<g>
			<defs>
				<rect id="SVGID_3_" width="933.6" height="464.2"/>
			</defs>
			<clipPath id="SVGID_4_">
				<use xlink:href="#SVGID_3_"  style="overflow:visible;"/>
			</clipPath>
			<path class="st2" d="M308.8,408.3c-80,0-158.2-12.3-213.2-23.7c-151.7-31.4-295.4-93.2-434.4-153c-7.2-3.1-10.5-11.4-7.4-18.6
				s11.4-10.5,18.6-7.4C-189.9,264.7-47.5,326,101.3,356.8c63.4,13.1,158.2,27.5,249.7,21.9c84.7-5.3,151-26.5,197.7-63.2
				c-8.2-9.2-13.4-20.4-14.5-32.2c-1.9-20.8,9.4-42.8,29.3-57.3c16.1-11.7,34.4-17.3,52.1-22.7l0.3-0.1c6.8-2.1,13.7-4.2,20.6-6.3
				c0.2-0.4,0.4-0.7,0.6-1.1c10.1-18.4,20.6-37.5,32.3-55.6c21.4-33.4,42.6-36.6,56.7-33.4c21.1,4.8,31.4,25.3,34.4,45.5
				c21.9-9.5,43.5-20,64.2-31.9c70.9-40.5,124.4-93.1,154.8-152.2c3.6-7,12.1-9.7,19.1-6.1c7,3.6,9.7,12.1,6.1,19.1
				C971.9,45.1,914.5,101.8,838.9,145c-25.1,14.4-51.3,26.8-77.8,37.8c-2.6,29.6-13.5,59.1-31.7,84.8c-22.7,32-54.6,55.3-90,65.7
				c-23.2,6.8-44.1,7.2-62.1,1c-1.6-0.5-3.2-1.1-4.7-1.8c-51.7,43.6-125.5,68.6-219.9,74.4C338.2,407.8,323.4,408.3,308.8,408.3z
				 M596.2,309.8c10.3,1.4,22.1,0.2,35.3-3.7c49.9-14.7,89.1-60.3,99.3-111.3c-25.3,9.5-50.5,18-74.8,25.6
				C638.8,251.5,620.5,282.8,596.2,309.8z M616.5,232.7c-13.4,4.2-25.9,8.6-36.2,16.1c-11.7,8.6-18.7,21.1-17.7,31.9
				c0.5,5.6,3.1,11.1,7.3,15.8c0.2-0.2,0.5-0.5,0.7-0.7C588.6,276.9,603,255.5,616.5,232.7z M717.8,134.2c-2,0-5.3,0.7-9.8,4.2
				c-4.8,3.7-9.8,9.6-14.6,17.1c-6,9.3-11.7,19-17.2,28.7c18.8-6.3,38-13.1,57.1-20.6c0-0.4,0-0.7-0.1-1.1
				c-0.6-12.2-5.1-26.1-13.3-28C719.5,134.3,718.8,134.2,717.8,134.2z"/>
		</g>
	</g>
	<g>
		<g>
			<defs>
				<rect id="SVGID_5_" width="933.6" height="464.2"/>
			</defs>
			<clipPath id="SVGID_6_">
				<use xlink:href="#SVGID_5_"  style="overflow:visible;"/>
			</clipPath>
			<path class="st3" d="M596.2,309.8c10.3,1.4,22.1,0.2,35.3-3.7c49.9-14.7,89.1-60.3,99.3-111.3l30.3-12
				c-2.6,29.6-13.5,59.1-31.7,84.8c-22.7,32-54.6,55.3-90,65.7c-23.2,6.8-44.1,7.2-62.1,1c-1.6-0.5-3.2-1.1-4.7-1.8L596.2,309.8z"/>
		</g>
	</g>
	<rect class="st4" width="933.6" height="464.2"/>
	<path class="st5" d="M760.6,152.3c-3-20.1-13.3-40.6-34.4-45.5c-14.1-3.2-35.3,0-56.7,33.4c-11.6,18.1-22.1,37.2-32.3,55.6
		c-0.2,0.4-0.4,0.7-0.6,1.1l-20.2,35.8c-13.5,22.9-27.9,44.3-45.9,63c-0.2,0.2-0.5,0.5-0.7,0.7l-21,19
		c-46.7,36.7-113.1,58-197.7,63.2c-91.5,5.7-186.3-8.8-249.7-21.9c-148.9-30.7-291.3-92-429-151.2c-7.2-3.1-15.5,0.2-18.6,7.4
		s0.2,15.5,7.4,18.6c139,59.8,282.7,121.7,434.4,153c55,11.4,133.2,23.7,213.2,23.7c14.7,0,29.4-0.4,44-1.3
		c94.3-5.9,168.1-30.9,219.9-74.4l23.5-22.7c24.4-27,42.6-58.3,59.8-89.3l20.2-36.3c5.5-9.8,11.3-19.4,17.2-28.7
		c4.8-7.5,9.9-13.4,14.6-17.1c3.3-2.5,5.9-3.6,7.9-4l0,0c7.2-2.1,13.7-1.8,19.2-0.5C746.5,136.5,755,143,760.6,152.3z"/>
	<g>
		<g>
			<defs>
				<rect id="SVGID_7_" width="933.6" height="464.2"/>
			</defs>
			<clipPath id="SVGID_8_">
				<use xlink:href="#SVGID_7_"  style="overflow:visible;"/>
			</clipPath>
			<path class="st6" d="M548.8,315.4c-8.2-9.2-13.4-20.4-14.5-32.2c-1.9-20.8,9.4-42.8,29.3-57.3c16.1-11.7,34.4-17.3,52.1-22.7
				l0.3-0.1c6.8-2.1,13.7-4.2,20.6-6.3c0.2-0.4,0.4-0.7,0.6-1.1l123.4-43.5c21.9-9.5,43.5-20,64.2-31.9
				c70.9-40.5,124.4-93.1,154.8-152.2c3.6-7,12.1-9.7,19.1-6.1c7,3.6,9.7,12.1,6.1,19.1c-32.9,64-90.3,120.7-165.9,163.9
				c-25.1,14.4-51.3,26.8-77.8,37.8l-30.3,12c-25.3,9.5-50.5,18-74.8,25.6l-39.5,12.2c-13.4,4.2-25.9,8.6-36.2,16.1
				c-11.7,8.6-18.7,21.1-17.7,31.9c0.5,5.6,3.1,11.1,7.3,15.8c0.2-0.2,0.5-0.5,0.7-0.7"/>
		</g>
	</g>
	<g>
		<g>
			<defs>
				<rect id="SVGID_9_" width="933.6" height="464.2"/>
			</defs>
			<clipPath id="SVGID_10_">
				<use xlink:href="#SVGID_9_"  style="overflow:visible;"/>
			</clipPath>
			<path class="st7" d="M570.5,295.7l-0.8,0.7c0,0,0,0,0,0.1C570.1,296.2,570.3,296,570.5,295.7z"/>
		</g>
	</g>
	<g>
		<g>
			<defs>
				<rect id="SVGID_11_" width="933.6" height="464.2"/>
			</defs>
			<clipPath id="SVGID_12_">
				<use xlink:href="#SVGID_11_"  style="overflow:visible;"/>
			</clipPath>
			<path class="st8" d="M569.3,295.8c-0.2,0.5-0.4,1-0.5,1.5l1-0.9C569.6,296.2,569.5,296,569.3,295.8z"/>
		</g>
	</g>
	<rect class="st4" width="933.6" height="464.2"/>
	<path class="st9" d="M998.7-37.9c-7-3.6-15.5-0.8-19.1,6.1c-30.4,59-83.9,111.6-154.8,152.2c-20.7,11.8-42.3,22.4-64.2,31.9
		l-123.4,43.5c-0.2,0.4-0.4,0.7-0.6,1.1c-7,2.2-13.8,4.3-20.6,6.3l-0.3,0.1c-17.7,5.4-36.1,11-52.1,22.7
		c-19.9,14.5-31.1,36.5-29.3,57.3c0.5,6,2.2,11.9,4.7,17.4c2-17.4,12.6-34.6,29.1-46.7c10.1-7.4,21.2-12.3,32.4-16.3l-0.3,0.6
		c5.2-2,10.6-3.8,16.1-5.6l39.5-12.2c24.3-7.7,49.5-16.1,74.8-25.6l30.3-12c26.5-11,52.7-23.5,77.8-37.8
		c75.6-43.3,133-99.9,165.9-163.8C1008.4-25.7,1005.7-34.3,998.7-37.9z"/>
	<g>
		<g>
			<defs>
				<rect id="SVGID_13_" width="933.6" height="464.2"/>
			</defs>
			<clipPath id="SVGID_14_">
				<use xlink:href="#SVGID_13_"  style="overflow:visible;"/>
			</clipPath>
			<path class="st10" d="M548.4,314.8c8.5,7.9,18,15.7,28.9,19.5c17.9,6.2,38.8,5.8,62.1-1c35.4-10.4,67.3-33.7,90-65.7
				c14.8-21,24.9-44.5,29.4-68.5c-4.7,10.6-10.6,20.8-17.4,30.5c-19.6,27.7-46.2,48.9-76,60.9c-10.5,6.8-21.9,12.1-34,15.7
				c-21.8,6.4-47.1,6-63.6-11.7L548.4,314.8z"/>
		</g>
	</g>
	<g>
		<g>
			<defs>
				<rect id="SVGID_15_" width="933.6" height="464.2"/>
			</defs>
			<clipPath id="SVGID_16_">
				<use xlink:href="#SVGID_15_"  style="overflow:visible;"/>
			</clipPath>
			<path class="st11" d="M639.9,248.6c5.5-9.3,10.9-18.8,16.1-28.2l20.2-36.3c5.5-9.8,11.3-19.4,17.2-28.7
				c4.8-7.5,9.9-13.4,14.6-17.1c3.3-2.5,5.9-3.6,7.9-4l0,0c7.2-2.1,13.7-1.8,19.2-0.5c11.5,2.6,19.9,9.1,25.6,18.4
				c-3-20.1-13.3-40.6-34.4-45.5c-14.1-3.2-35.3,0-56.7,33.4c-11.6,18.1-22.1,37.2-32.3,55.6c-0.2,0.4-0.4,0.7-0.6,1.1l-20.2,35.8
				c-3.7,6.2-7.4,12.3-11.2,18.2L639.9,248.6z"/>
		</g>
	</g>
</g>
</svg>
